<?xml version="1.0" standalone="no"?>
<!DOCTYPE svg PUBLIC "-//W3C//DTD SVG 1.1//EN" "http://www.w3.org/Graphics/SVG/1.1/DTD/svg11.dtd" >
<svg xmlns="http://www.w3.org/2000/svg">
<metadata></metadata>
<defs>
<font id="symbolaregular" horiz-adv-x="1628" >
<font-face units-per-em="2048" ascent="1606" descent="-442" />
<missing-glyph horiz-adv-x="500" />
<glyph unicode="&#xd;" />
<glyph unicode="&#xe000;" horiz-adv-x="500" d="M0 0v0v0v0v0z" />
<glyph unicode="&#x1f0a0;" d="M1578 -244q0 -148 -138 -148h-1252q-138 0 -138 148v1652q0 148 138 148h1252q138 0 138 -148v-1652zM1544 -244v1652q0 114 -104 114h-1252q-104 0 -104 -114v-1652q0 -114 104 -114h1252q104 0 104 114zM1403 -188h-1178v1540h1178v-1540zM1379 -164v1492h-1130v-1492 h1130zM1373 1178l-108 -144l-109 144l109 144zM1156 1178l-108 -144l-109 144l109 144zM1373 880l-108 -144l-109 144l109 144zM928 1178l-108 -144l-109 144l109 144zM1156 880l-108 -144l-109 144l109 144zM1373 582l-108 -144l-109 144l109 144zM700 1178l-108 -144 l-109 144l109 144zM928 880l-108 -144l-109 144l109 144zM1156 582l-108 -144l-109 144l109 144zM1373 284l-108 -144l-109 144l109 144zM472 1178l-109 -144l-108 144l108 144zM700 880l-108 -144l-109 144l109 144zM928 582l-108 -144l-109 144l109 144zM1156 284 l-108 -144l-109 144l109 144zM1373 -14l-108 -144l-109 144l109 144zM472 880l-109 -144l-108 144l108 144zM700 582l-108 -144l-109 144l109 144zM928 284l-108 -144l-109 144l109 144zM1156 -14l-108 -144l-109 144l109 144zM472 582l-109 -144l-108 144l108 144zM700 284 l-108 -144l-109 144l109 144zM928 -14l-108 -144l-109 144l109 144zM472 284l-109 -144l-108 144l108 144zM700 -14l-108 -144l-109 144l109 144zM472 -14l-109 -144l-108 144l108 144z" />
<glyph unicode="&#x1f0a1;" d="M1578 -244q0 -148 -138 -148h-1252q-138 0 -138 148v1652q0 148 138 148h1252q138 0 138 -148v-1652zM1544 -244v1652q0 114 -104 114h-1252q-104 0 -104 -114v-1652q0 -114 104 -114h1252q104 0 104 114zM321 1252h-79v25h24l-16 46h-74l-16 -46h24v-25h-79v25h25 l54 155h-24v23h106v-23h-24l54 -155h25v-25zM1233 579q0 -78 -51 -133.5t-129 -55.5q-144 0 -217 163h-2q0 -355 315 -364l5 -33h-680l5 33q316 9 316 364h-3q-73 -163 -217 -163q-78 0 -129 55.5t-51 133.5q0 97 94 200q93 92 187 185q110 120 138 246q27 -126 138 -246 q94 -92 187 -185q94 -103 94 -200zM1494 68q0 -12 -20 -35l-58 -66l-59 66q-20 22 -20 35q0 37 36 37q32 0 39 -26q-8 58 -22 84q9 -3 26 -3q16 0 25 3q-14 -26 -22 -84q7 26 40 26q35 0 35 -37zM291 1096q0 -37 -36 -37q-32 0 -39 26q8 -58 22 -84q-9 3 -26 3q-16 0 -25 -3 q14 26 22 84q-7 -26 -40 -26q-35 0 -35 37q0 12 20 35l58 66l59 -66q20 -22 20 -35zM1523 -113h-25l-54 -155h24v-23h-106v23h24l-54 155h-25v25h79v-25h-24l16 -46h74l16 46h-24v25h79v-25zM243 1347l-28 85h-4l-28 -85h60zM1445 -183h-60l28 -85h4z" />
<glyph unicode="&#x1f0a2;" d="M1578 -244q0 -148 -138 -148h-1252q-138 0 -138 148v1652q0 148 138 148h1252q138 0 138 -148v-1652zM1544 -244v1652q0 114 -104 114h-1252q-104 0 -104 -114v-1652q0 -114 104 -114h1252q104 0 104 114zM943 1164q0 -24 -17.5 -42.5t-41.5 -18.5t-44.5 16t-20.5 39 q9 -62 12 -77q9 -43 25 -73q-15 5 -42 5t-42 -5q21 39 37 150q0 -23 -20.5 -39t-44.5 -16t-41.5 18.5t-17.5 42.5q0 20 33 57l96 109l96 -109q33 -37 33 -57zM277 1324l-1 -72h-130q0 20 8 40q12 30 62 67q18 13 24.5 22.5t6.5 19.5q0 33 -33 33q-39 0 -36 -56h-27v9 q0 71 61 71q64 0 64 -55q0 -17 -12 -33q-6 -8 -50 -43q-35 -27 -38 -49h76l1 46h24zM1494 68q0 -12 -20 -35l-58 -66l-59 66q-20 22 -20 35q0 37 36 37q32 0 39 -26q-8 58 -22 84q9 -3 26 -3q16 0 25 3q-14 -26 -22 -84q7 26 40 26q35 0 35 -37zM291 1096q0 -37 -36 -37 q-32 0 -39 26q8 -58 22 -84q-9 3 -26 3q-16 0 -25 -3q14 26 22 84q-7 -26 -40 -26q-35 0 -35 37q0 12 20 35l58 66l59 -66q20 -22 20 -35zM1482 -88q0 -20 -8 -40q-12 -30 -62 -67q-18 -13 -24.5 -22.5t-6.5 -19.5q0 -33 33 -33q39 0 36 56h27v-9q0 -71 -61 -71 q-64 0 -64 55q0 17 12 33q6 8 50 43q35 27 38 49h-76l-1 -46h-24l1 72h130zM943 1q0 -20 -33 -57l-96 -109l-96 109q-33 37 -33 57q0 24 17.5 42t41.5 18t44.5 -16t20.5 -39q-9 63 -12 77q-9 44 -25 74q15 -5 42 -5t42 5q-21 -39 -37 -151q0 23 20.5 39t44.5 16t41.5 -18 t17.5 -42z" />
<glyph unicode="&#x1f0a3;" d="M1578 -244q0 -148 -138 -148h-1252q-138 0 -138 148v1652q0 148 138 148h1252q138 0 138 -148v-1652zM1544 -244v1652q0 114 -104 114h-1252q-104 0 -104 -114v-1652q0 -114 104 -114h1252q104 0 104 114zM943 1164q0 -24 -17.5 -42.5t-41.5 -18.5t-44.5 16t-20.5 39 q9 -62 12 -77q9 -43 25 -73q-15 5 -42 5t-42 -5q21 39 37 150q0 -23 -20.5 -39t-44.5 -16t-41.5 18.5t-17.5 42.5q0 20 33 57l96 109l96 -109q33 -37 33 -57zM282 1310q0 -30 -21 -46t-49 -16q-71 0 -71 72h28q1 -48 45 -48q39 0 39 37q0 15 -13 26t-47 10v25q51 0 51 31 q0 33 -30 33q-34 0 -35 -40h-28q0 34 17.5 49t42.5 15q61 0 61 -54q0 -33 -28 -46q38 -11 38 -48zM1494 68q0 -12 -20 -35l-58 -66l-59 66q-20 22 -20 35q0 37 36 37q32 0 39 -26q-8 58 -22 84q9 -3 26 -3q16 0 25 3q-14 -26 -22 -84q7 26 40 26q35 0 35 -37zM943 593 q0 -24 -17.5 -42t-41.5 -18t-44.5 15.5t-20.5 38.5q9 -62 12 -77q9 -43 25 -73q-15 5 -42 5t-42 -5q21 39 37 150q0 -23 -20.5 -38.5t-44.5 -15.5t-41.5 18t-17.5 42q0 19 33 57l96 110l96 -110q33 -38 33 -57zM291 1096q0 -37 -36 -37q-32 0 -39 26q8 -58 22 -84 q-9 3 -26 3q-16 0 -25 -3q14 26 22 84q-7 -26 -40 -26q-35 0 -35 37q0 12 20 35l58 66l59 -66q20 -22 20 -35zM1487 -156h-28q-1 48 -45 48q-39 0 -39 -37q0 -15 13 -26t47 -10v-25q-51 0 -51 -31q0 -33 30 -33q34 0 35 40h28q0 -34 -17.5 -49t-42.5 -15q-61 0 -61 54 q0 33 28 46q-38 11 -38 48q0 30 21 46t49 16q71 0 71 -72zM943 1q0 -20 -33 -57l-96 -109l-96 109q-33 37 -33 57q0 24 17.5 42t41.5 18t44.5 -16t20.5 -39q-9 63 -12 77q-9 44 -25 74q15 -5 42 -5t42 5q-21 -39 -37 -151q0 23 20.5 39t44.5 16t41.5 -18t17.5 -42z" />
<glyph unicode="&#x1f0a4;" d="M1578 -244q0 -148 -138 -148h-1252q-138 0 -138 148v1652q0 148 138 148h1252q138 0 138 -148v-1652zM1544 -244v1652q0 114 -104 114h-1252q-104 0 -104 -114v-1652q0 -114 104 -114h1252q104 0 104 114zM1282 1164q0 -24 -17.5 -42.5t-41.5 -18.5t-44.5 16t-20.5 39 q9 -62 12 -77q9 -43 25 -73q-15 5 -42 5t-42 -5q21 39 37 150q0 -23 -20.5 -39t-44.5 -16t-41.5 18.5t-17.5 42.5q0 20 33 57l96 109l96 -109q33 -37 33 -57zM604 1164q0 -24 -17.5 -42.5t-41.5 -18.5t-44.5 16t-20.5 39q9 -62 12 -77q9 -43 25 -73q-15 5 -42 5t-42 -5 q21 39 37 150q0 -23 -20.5 -39t-44.5 -16t-41.5 18.5t-17.5 42.5q0 20 33 57l96 109l96 -109q33 -37 33 -57zM282 1306h-33v-30h19v-24h-67v24h21v30h-68l-13 23l85 127h23v-126h33v-24zM1494 68q0 -12 -20 -35l-58 -66l-59 66q-20 22 -20 35q0 37 36 37q32 0 39 -26 q-8 58 -22 84q9 -3 26 -3q16 0 25 3q-14 -26 -22 -84q7 26 40 26q35 0 35 -37zM291 1096q0 -37 -36 -37q-32 0 -39 26q8 -58 22 -84q-9 3 -26 3q-16 0 -25 -3q14 26 22 84q-7 -26 -40 -26q-35 0 -35 37q0 12 20 35l58 66l59 -66q20 -22 20 -35zM1487 -165l-85 -127h-23v126 h-33v24h33v30h-19v24h67v-24h-21v-30h68zM1282 1q0 -20 -33 -57l-96 -109l-96 109q-33 37 -33 57q0 24 17.5 42t41.5 18t44.5 -16t20.5 -39q-9 63 -12 77q-9 44 -25 74q15 -5 42 -5t42 5q-21 -39 -37 -151q0 23 20.5 39t44.5 16t41.5 -18t17.5 -42zM604 1q0 -20 -33 -57 l-96 -109l-96 109q-33 37 -33 57q0 24 17.5 42t41.5 18t44.5 -16t20.5 -39q-9 63 -12 77q-9 44 -25 74q15 -5 42 -5t42 5q-21 -39 -37 -151q0 23 20.5 39t44.5 16t41.5 -18t17.5 -42zM222 1330v80l-53 -80h53zM1459 -166h-53v-80z" />
<glyph unicode="&#x1f0a5;" d="M1578 -244q0 -148 -138 -148h-1252q-138 0 -138 148v1652q0 148 138 148h1252q138 0 138 -148v-1652zM1544 -244v1652q0 114 -104 114h-1252q-104 0 -104 -114v-1652q0 -114 104 -114h1252q104 0 104 114zM1282 1164q0 -24 -17.5 -42.5t-41.5 -18.5t-44.5 16t-20.5 39 q9 -62 12 -77q9 -43 25 -73q-15 5 -42 5t-42 -5q21 39 37 150q0 -23 -20.5 -39t-44.5 -16t-41.5 18.5t-17.5 42.5q0 20 33 57l96 109l96 -109q33 -37 33 -57zM604 1164q0 -24 -17.5 -42.5t-41.5 -18.5t-44.5 16t-20.5 39q9 -62 12 -77q9 -43 25 -73q-15 5 -42 5t-42 -5 q21 39 37 150q0 -23 -20.5 -39t-44.5 -16t-41.5 18.5t-17.5 42.5q0 20 33 57l96 109l96 -109q33 -37 33 -57zM281 1316q0 -68 -70 -68q-64 0 -68 68h26q5 -44 42 -44q41 0 41 44q0 43 -38 43q-25 0 -41 -24q-9 9 -20 14l7 106h109v-54h-25v27h-62l-5 -60q20 16 42 16 q62 0 62 -68zM1494 68q0 -12 -20 -35l-58 -66l-59 66q-20 22 -20 35q0 37 36 37q32 0 39 -26q-8 58 -22 84q9 -3 26 -3q16 0 25 3q-14 -26 -22 -84q7 26 40 26q35 0 35 -37zM943 593q0 -24 -17.5 -42t-41.5 -18t-44.5 15.5t-20.5 38.5q9 -62 12 -77q9 -43 25 -73 q-15 5 -42 5t-42 -5q21 39 37 150q0 -23 -20.5 -38.5t-44.5 -15.5t-41.5 18t-17.5 42q0 19 33 57l96 110l96 -110q33 -38 33 -57zM291 1096q0 -37 -36 -37q-32 0 -39 26q8 -58 22 -84q-9 3 -26 3q-16 0 -25 -3q14 26 22 84q-7 -26 -40 -26q-35 0 -35 37q0 12 20 35l58 66 l59 -66q20 -22 20 -35zM1485 -152h-26q-5 44 -42 44q-41 0 -41 -44q0 -43 38 -43q25 0 41 24q9 -9 20 -14l-7 -106h-109v54h25v-27h62l5 60q-20 -16 -42 -16q-62 0 -62 68t70 68q64 0 68 -68zM1282 1q0 -20 -33 -57l-96 -109l-96 109q-33 37 -33 57q0 24 17.5 42t41.5 18 t44.5 -16t20.5 -39q-9 63 -12 77q-9 44 -25 74q15 -5 42 -5t42 5q-21 -39 -37 -151q0 23 20.5 39t44.5 16t41.5 -18t17.5 -42zM604 1q0 -20 -33 -57l-96 -109l-96 109q-33 37 -33 57q0 24 17.5 42t41.5 18t44.5 -16t20.5 -39q-9 63 -12 77q-9 44 -25 74q15 -5 42 -5t42 5 q-21 -39 -37 -151q0 23 20.5 39t44.5 16t41.5 -18t17.5 -42z" />
<glyph unicode="&#x1f0a6;" d="M1578 -244q0 -148 -138 -148h-1252q-138 0 -138 148v1652q0 148 138 148h1252q138 0 138 -148v-1652zM1544 -244v1652q0 114 -104 114h-1252q-104 0 -104 -114v-1652q0 -114 104 -114h1252q104 0 104 114zM1282 1164q0 -24 -17.5 -42.5t-41.5 -18.5t-44.5 16t-20.5 39 q9 -62 12 -77q9 -43 25 -73q-15 5 -42 5t-42 -5q21 39 37 150q0 -23 -20.5 -39t-44.5 -16t-41.5 18.5t-17.5 42.5q0 20 33 57l96 109l96 -109q33 -37 33 -57zM1282 593q0 -24 -17.5 -42t-41.5 -18t-44.5 15.5t-20.5 38.5q9 -62 12 -77q9 -43 25 -73q-15 5 -42 5t-42 -5 q21 39 37 150q0 -23 -20.5 -38.5t-44.5 -15.5t-41.5 18t-17.5 42q0 19 33 57l96 110l96 -110q33 -38 33 -57zM604 1164q0 -24 -17.5 -42.5t-41.5 -18.5t-44.5 16t-20.5 39q9 -62 12 -77q9 -43 25 -73q-15 5 -42 5t-42 -5q21 39 37 150q0 -23 -20.5 -39t-44.5 -16t-41.5 18.5 t-17.5 42.5q0 20 33 57l96 109l96 -109q33 -37 33 -57zM277 1318q0 -70 -61 -70q-32 0 -51 26t-19 78q0 106 71 106q57 0 59 -63h-26q-5 39 -35 39q-41 0 -42 -76q21 23 48 23q56 0 56 -63zM1494 68q0 -12 -20 -35l-58 -66l-59 66q-20 22 -20 35q0 37 36 37q32 0 39 -26 q-8 58 -22 84q9 -3 26 -3q16 0 25 3q-14 -26 -22 -84q7 26 40 26q35 0 35 -37zM291 1096q0 -37 -36 -37q-32 0 -39 26q8 -58 22 -84q-9 3 -26 3q-16 0 -25 -3q14 26 22 84q-7 -26 -40 -26q-35 0 -35 37q0 12 20 35l58 66l59 -66q20 -22 20 -35zM1482 -188q0 -106 -71 -106 q-57 0 -59 63h26q5 -39 35 -39q41 0 42 76q-21 -23 -48 -23q-56 0 -56 63q0 70 61 70q32 0 51 -26t19 -78zM1282 1q0 -20 -33 -57l-96 -109l-96 109q-33 37 -33 57q0 24 17.5 42t41.5 18t44.5 -16t20.5 -39q-9 63 -12 77q-9 44 -25 74q15 -5 42 -5t42 5q-21 -39 -37 -151 q0 23 20.5 39t44.5 16t41.5 -18t17.5 -42zM604 593q0 -24 -17.5 -42t-41.5 -18t-44.5 15.5t-20.5 38.5q9 -62 12 -77q9 -43 25 -73q-15 5 -42 5t-42 -5q21 39 37 150q0 -23 -20.5 -38.5t-44.5 -15.5t-41.5 18t-17.5 42q0 19 33 57l96 110l96 -110q33 -38 33 -57zM604 1 q0 -20 -33 -57l-96 -109l-96 109q-33 37 -33 57q0 24 17.5 42t41.5 18t44.5 -16t20.5 -39q-9 63 -12 77q-9 44 -25 74q15 -5 42 -5t42 5q-21 -39 -37 -151q0 23 20.5 39t44.5 16t41.5 -18t17.5 -42zM252 1315q0 39 -35 39q-22 0 -43 -26q7 -56 41 -56q37 0 37 43zM1454 -164 q-7 56 -41 56q-37 0 -37 -43q0 -39 35 -39q22 0 43 26z" />
<glyph unicode="&#x1f0a7;" d="M1578 -244q0 -148 -138 -148h-1252q-138 0 -138 148v1652q0 148 138 148h1252q138 0 138 -148v-1652zM1544 -244v1652q0 114 -104 114h-1252q-104 0 -104 -114v-1652q0 -114 104 -114h1252q104 0 104 114zM1282 1164q0 -24 -17.5 -42.5t-41.5 -18.5t-44.5 16t-20.5 39 q9 -62 12 -77q9 -43 25 -73q-15 5 -42 5t-42 -5q21 39 37 150q0 -23 -20.5 -39t-44.5 -16t-41.5 18.5t-17.5 42.5q0 20 33 57l96 109l96 -109q33 -37 33 -57zM1282 593q0 -24 -17.5 -42t-41.5 -18t-44.5 15.5t-20.5 38.5q9 -62 12 -77q9 -43 25 -73q-15 5 -42 5t-42 -5 q21 39 37 150q0 -23 -20.5 -38.5t-44.5 -15.5t-41.5 18t-17.5 42q0 19 33 57l96 110l96 -110q33 -38 33 -57zM943 847q0 -24 -17.5 -42.5t-41.5 -18.5t-44.5 16t-20.5 39q9 -62 12 -77q9 -43 25 -73q-15 5 -42 5t-42 -5q21 39 37 150q0 -23 -20.5 -39t-44.5 -16t-41.5 18.5 t-17.5 42.5q0 20 33 57l96 109l96 -109q33 -37 33 -57zM604 1164q0 -24 -17.5 -42.5t-41.5 -18.5t-44.5 16t-20.5 39q9 -62 12 -77q9 -43 25 -73q-15 5 -42 5t-42 -5q21 39 37 150q0 -23 -20.5 -39t-44.5 -16t-41.5 18.5t-17.5 42.5q0 20 33 57l96 109l96 -109 q33 -37 33 -57zM276 1433q-56 -67 -56 -157h23v-24h-80v24h28q5 85 52 152h-70v-27h-24v54h127v-22zM1494 68q0 -12 -20 -35l-58 -66l-59 66q-20 22 -20 35q0 37 36 37q32 0 39 -26q-8 58 -22 84q9 -3 26 -3q16 0 25 3q-14 -26 -22 -84q7 26 40 26q35 0 35 -37zM291 1096 q0 -37 -36 -37q-32 0 -39 26q8 -58 22 -84q-9 3 -26 3q-16 0 -25 -3q14 26 22 84q-7 -26 -40 -26q-35 0 -35 37q0 12 20 35l58 66l59 -66q20 -22 20 -35zM1479 -291h-127v22q56 67 56 157h-23v24h80v-24h-28q-5 -85 -52 -152h70v27h24v-54zM1282 1q0 -20 -33 -57l-96 -109 l-96 109q-33 37 -33 57q0 24 17.5 42t41.5 18t44.5 -16t20.5 -39q-9 63 -12 77q-9 44 -25 74q15 -5 42 -5t42 5q-21 -39 -37 -151q0 23 20.5 39t44.5 16t41.5 -18t17.5 -42zM604 593q0 -24 -17.5 -42t-41.5 -18t-44.5 15.5t-20.5 38.5q9 -62 12 -77q9 -43 25 -73 q-15 5 -42 5t-42 -5q21 39 37 150q0 -23 -20.5 -38.5t-44.5 -15.5t-41.5 18t-17.5 42q0 19 33 57l96 110l96 -110q33 -38 33 -57zM604 1q0 -20 -33 -57l-96 -109l-96 109q-33 37 -33 57q0 24 17.5 42t41.5 18t44.5 -16t20.5 -39q-9 63 -12 77q-9 44 -25 74q15 -5 42 -5t42 5 q-21 -39 -37 -151q0 23 20.5 39t44.5 16t41.5 -18t17.5 -42z" />
<glyph unicode="&#x1f0a8;" d="M1578 -244q0 -148 -138 -148h-1252q-138 0 -138 148v1652q0 148 138 148h1252q138 0 138 -148v-1652zM1544 -244v1652q0 114 -104 114h-1252q-104 0 -104 -114v-1652q0 -114 104 -114h1252q104 0 104 114zM1282 1164q0 -24 -17.5 -42.5t-41.5 -18.5t-44.5 16t-20.5 39 q9 -62 12 -77q9 -43 25 -73q-15 5 -42 5t-42 -5q21 39 37 150q0 -23 -20.5 -39t-44.5 -16t-41.5 18.5t-17.5 42.5q0 20 33 57l96 109l96 -109q33 -37 33 -57zM1282 593q0 -24 -17.5 -42t-41.5 -18t-44.5 15.5t-20.5 38.5q9 -62 12 -77q9 -43 25 -73q-15 5 -42 5t-42 -5 q21 39 37 150q0 -23 -20.5 -38.5t-44.5 -15.5t-41.5 18t-17.5 42q0 19 33 57l96 110l96 -110q33 -38 33 -57zM943 847q0 -24 -17.5 -42.5t-41.5 -18.5t-44.5 16t-20.5 39q9 -62 12 -77q9 -43 25 -73q-15 5 -42 5t-42 -5q21 39 37 150q0 -23 -20.5 -39t-44.5 -16t-41.5 18.5 t-17.5 42.5q0 20 33 57l96 109l96 -109q33 -37 33 -57zM604 1164q0 -24 -17.5 -42.5t-41.5 -18.5t-44.5 16t-20.5 39q9 -62 12 -77q9 -43 25 -73q-15 5 -42 5t-42 -5q21 39 37 150q0 -23 -20.5 -39t-44.5 -16t-41.5 18.5t-17.5 42.5q0 20 33 57l96 109l96 -109 q33 -37 33 -57zM282 1307q0 -59 -68 -59q-73 0 -73 59q0 37 36 51q-29 17 -29 47q0 53 62 53q66 0 66 -53q0 -30 -29 -47q35 -14 35 -51zM1494 68q0 -12 -20 -35l-58 -66l-59 66q-20 22 -20 35q0 37 36 37q32 0 39 -26q-8 58 -22 84q9 -3 26 -3q16 0 25 3q-14 -26 -22 -84 q7 26 40 26q35 0 35 -37zM291 1096q0 -37 -36 -37q-32 0 -39 26q8 -58 22 -84q-9 3 -26 3q-16 0 -25 -3q14 26 22 84q-7 -26 -40 -26q-35 0 -35 37q0 12 20 35l58 66l59 -66q20 -22 20 -35zM1487 -143q0 -37 -36 -51q29 -17 29 -47q0 -53 -62 -53q-66 0 -66 53q0 30 29 47 q-35 14 -35 51q0 59 68 59q73 0 73 -59zM943 350q0 -20 -33 -57l-96 -109l-96 109q-33 37 -33 57q0 24 17.5 42t41.5 18t44.5 -16t20.5 -39q-9 63 -12 77q-9 44 -25 74q15 -5 42 -5t42 5q-21 -39 -37 -151q0 23 20.5 39t44.5 16t41.5 -18t17.5 -42zM1282 1q0 -20 -33 -57 l-96 -109l-96 109q-33 37 -33 57q0 24 17.5 42t41.5 18t44.5 -16t20.5 -39q-9 63 -12 77q-9 44 -25 74q15 -5 42 -5t42 5q-21 -39 -37 -151q0 23 20.5 39t44.5 16t41.5 -18t17.5 -42zM604 593q0 -24 -17.5 -42t-41.5 -18t-44.5 15.5t-20.5 38.5q9 -62 12 -77q9 -43 25 -73 q-15 5 -42 5t-42 -5q21 39 37 150q0 -23 -20.5 -38.5t-44.5 -15.5t-41.5 18t-17.5 42q0 19 33 57l96 110l96 -110q33 -38 33 -57zM604 1q0 -20 -33 -57l-96 -109l-96 109q-33 37 -33 57q0 24 17.5 42t41.5 18t44.5 -16t20.5 -39q-9 63 -12 77q-9 44 -25 74q15 -5 42 -5t42 5 q-21 -39 -37 -151q0 23 20.5 39t44.5 16t41.5 -18t17.5 -42zM249 1401q0 33 -38 33q-37 0 -37 -33q0 -31 38 -31q37 0 37 31zM253 1309q0 36 -42 36q-41 0 -41 -36q0 -37 42 -37q41 0 41 37zM1458 -145q0 37 -42 37q-41 0 -41 -37q0 -36 42 -36q41 0 41 36zM1454 -237 q0 31 -38 31q-37 0 -37 -31q0 -33 38 -33q37 0 37 33z" />
<glyph unicode="&#x1f0a9;" d="M1578 -244q0 -148 -138 -148h-1252q-138 0 -138 148v1652q0 148 138 148h1252q138 0 138 -148v-1652zM1544 -244v1652q0 114 -104 114h-1252q-104 0 -104 -114v-1652q0 -114 104 -114h1252q104 0 104 114zM1282 1164q0 -24 -17.5 -42.5t-41.5 -18.5t-44.5 16t-20.5 39 q9 -62 12 -77q9 -43 25 -73q-15 5 -42 5t-42 -5q21 39 37 150q0 -23 -20.5 -39t-44.5 -16t-41.5 18.5t-17.5 42.5q0 20 33 57l96 109l96 -109q33 -37 33 -57zM1282 784q0 -24 -17.5 -42.5t-41.5 -18.5t-44.5 15.5t-20.5 38.5q9 -61 12 -76q9 -43 25 -73q-15 5 -42 5t-42 -5 q21 40 37 149q0 -23 -20.5 -38.5t-44.5 -15.5t-41.5 18.5t-17.5 42.5q0 20 33 57l96 109l96 -109q33 -37 33 -57zM604 1164q0 -24 -17.5 -42.5t-41.5 -18.5t-44.5 16t-20.5 39q9 -62 12 -77q9 -43 25 -73q-15 5 -42 5t-42 -5q21 39 37 150q0 -23 -20.5 -39t-44.5 -16 t-41.5 18.5t-17.5 42.5q0 20 33 57l96 109l96 -109q33 -37 33 -57zM277 1354q0 -106 -71 -106q-56 0 -58 63h25q5 -39 36 -39q40 0 41 76q-21 -23 -47 -23q-57 0 -57 64q0 69 61 69q32 0 51 -26t19 -78zM1282 382q0 -19 -33 -57l-96 -110l-96 110q-33 38 -33 57 q0 24 17.5 41.5t41.5 17.5t44.5 -15.5t20.5 -38.5q-9 63 -12 77q-9 44 -25 74q15 -5 42 -5t42 5q-21 -39 -37 -151q0 23 20.5 38.5t44.5 15.5t41.5 -17.5t17.5 -41.5zM1494 68q0 -12 -20 -35l-58 -66l-59 66q-20 22 -20 35q0 37 36 37q32 0 39 -26q-8 58 -22 84q9 -3 26 -3 q16 0 25 3q-14 -26 -22 -84q7 26 40 26q35 0 35 -37zM943 593q0 -24 -17.5 -42t-41.5 -18t-44.5 15.5t-20.5 38.5q9 -62 12 -77q9 -43 25 -73q-15 5 -42 5t-42 -5q21 39 37 150q0 -23 -20.5 -38.5t-44.5 -15.5t-41.5 18t-17.5 42q0 19 33 57l96 110l96 -110q33 -38 33 -57z M291 1096q0 -37 -36 -37q-32 0 -39 26q8 -58 22 -84q-9 3 -26 3q-16 0 -25 -3q14 26 22 84q-7 -26 -40 -26q-35 0 -35 37q0 12 20 35l58 66l59 -66q20 -22 20 -35zM604 784q0 -24 -17.5 -42.5t-41.5 -18.5t-44.5 15.5t-20.5 38.5q9 -61 12 -76q9 -43 25 -73q-15 5 -42 5 t-42 -5q21 40 37 149q0 -23 -20.5 -38.5t-44.5 -15.5t-41.5 18.5t-17.5 42.5q0 20 33 57l96 109l96 -109q33 -37 33 -57zM1482 -225q0 -69 -61 -69q-32 0 -51 26t-19 78q0 106 71 106q56 0 58 -63h-25q-5 39 -36 39q-40 0 -41 -76q21 23 47 23q57 0 57 -64zM1282 1 q0 -20 -33 -57l-96 -109l-96 109q-33 37 -33 57q0 24 17.5 42t41.5 18t44.5 -16t20.5 -39q-9 63 -12 77q-9 44 -25 74q15 -5 42 -5t42 5q-21 -39 -37 -151q0 23 20.5 39t44.5 16t41.5 -18t17.5 -42zM604 382q0 -19 -33 -57l-96 -110l-96 110q-33 38 -33 57q0 24 17.5 41.5 t41.5 17.5t44.5 -15.5t20.5 -38.5q-9 63 -12 77q-9 44 -25 74q15 -5 42 -5t42 5q-21 -39 -37 -151q0 23 20.5 38.5t44.5 15.5t41.5 -17.5t17.5 -41.5zM604 1q0 -20 -33 -57l-96 -109l-96 109q-33 37 -33 57q0 24 17.5 42t41.5 18t44.5 -16t20.5 -39q-9 63 -12 77 q-9 44 -25 74q15 -5 42 -5t42 5q-21 -39 -37 -151q0 23 20.5 39t44.5 16t41.5 -18t17.5 -42zM249 1378q-6 56 -40 56q-37 0 -37 -43q0 -39 34 -39q22 0 43 26zM1456 -227q0 39 -34 39q-22 0 -43 -26q6 -56 40 -56q37 0 37 43z" />
<glyph unicode="&#x1f0aa;" d="M1578 -244q0 -148 -138 -148h-1252q-138 0 -138 148v1652q0 148 138 148h1252q138 0 138 -148v-1652zM1544 -244v1652q0 114 -104 114h-1252q-104 0 -104 -114v-1652q0 -114 104 -114h1252q104 0 104 114zM1282 1164q0 -24 -17.5 -42.5t-41.5 -18.5t-44.5 16t-20.5 39 q9 -62 12 -77q9 -43 25 -73q-15 5 -42 5t-42 -5q21 39 37 150q0 -23 -20.5 -39t-44.5 -16t-41.5 18.5t-17.5 42.5q0 20 33 57l96 109l96 -109q33 -37 33 -57zM1282 784q0 -24 -17.5 -42.5t-41.5 -18.5t-44.5 15.5t-20.5 38.5q9 -61 12 -76q9 -43 25 -73q-15 5 -42 5t-42 -5 q21 40 37 149q0 -23 -20.5 -38.5t-44.5 -15.5t-41.5 18.5t-17.5 42.5q0 20 33 57l96 109l96 -109q33 -37 33 -57zM943 974q0 -24 -17.5 -42.5t-41.5 -18.5t-44.5 16t-20.5 39q9 -62 12 -77q9 -43 25 -73q-15 5 -42 5t-42 -5q21 39 37 150q0 -23 -20.5 -39t-44.5 -16 t-41.5 18.5t-17.5 42.5q0 20 33 57l96 109l96 -109q33 -37 33 -57zM604 1164q0 -24 -17.5 -42.5t-41.5 -18.5t-44.5 16t-20.5 39q9 -62 12 -77q9 -43 25 -73q-15 5 -42 5t-42 -5q21 39 37 150q0 -23 -20.5 -39t-44.5 -16t-41.5 18.5t-17.5 42.5q0 20 33 57l96 109l96 -109 q33 -37 33 -57zM314 1353q0 -105 -61 -105q-62 0 -62 105t62 105q61 0 61 -105zM1282 382q0 -19 -33 -57l-96 -110l-96 110q-33 38 -33 57q0 24 17.5 41.5t41.5 17.5t44.5 -15.5t20.5 -38.5q-9 63 -12 77q-9 44 -25 74q15 -5 42 -5t42 5q-21 -39 -37 -151q0 23 20.5 38.5 t44.5 15.5t41.5 -17.5t17.5 -41.5zM191 1252h-83v24h28v154h-28v25h56v-179h27v-24zM1494 68q0 -12 -20 -35l-58 -66l-59 66q-20 22 -20 35q0 37 36 37q32 0 39 -26q-8 58 -22 84q9 -3 26 -3q16 0 25 3q-14 -26 -22 -84q7 26 40 26q35 0 35 -37zM291 1096q0 -37 -36 -37 q-32 0 -39 26q8 -58 22 -84q-9 3 -26 3q-16 0 -25 -3q14 26 22 84q-7 -26 -40 -26q-35 0 -35 37q0 12 20 35l58 66l59 -66q20 -22 20 -35zM1520 -291h-56v179h-27v24h83v-24h-28v-154h28v-25zM604 784q0 -24 -17.5 -42.5t-41.5 -18.5t-44.5 15.5t-20.5 38.5q9 -61 12 -76 q9 -43 25 -73q-15 5 -42 5t-42 -5q21 40 37 149q0 -23 -20.5 -38.5t-44.5 -15.5t-41.5 18.5t-17.5 42.5q0 20 33 57l96 109l96 -109q33 -37 33 -57zM1437 -189q0 -105 -62 -105q-61 0 -61 105t61 105q62 0 62 -105zM1282 1q0 -20 -33 -57l-96 -109l-96 109q-33 37 -33 57 q0 24 17.5 42t41.5 18t44.5 -16t20.5 -39q-9 63 -12 77q-9 44 -25 74q15 -5 42 -5t42 5q-21 -39 -37 -151q0 23 20.5 39t44.5 16t41.5 -18t17.5 -42zM943 223q0 -20 -33 -57l-96 -109l-96 109q-33 37 -33 57q0 24 17.5 42t41.5 18t44.5 -16t20.5 -39q-9 63 -12 77 q-9 44 -25 74q15 -5 42 -5t42 5q-21 -39 -37 -151q0 23 20.5 39t44.5 16t41.5 -18t17.5 -42zM604 382q0 -19 -33 -57l-96 -110l-96 110q-33 38 -33 57q0 24 17.5 41.5t41.5 17.5t44.5 -15.5t20.5 -38.5q-9 63 -12 77q-9 44 -25 74q15 -5 42 -5t42 5q-21 -39 -37 -151 q0 23 20.5 38.5t44.5 15.5t41.5 -17.5t17.5 -41.5zM604 1q0 -20 -33 -57l-96 -109l-96 109q-33 37 -33 57q0 24 17.5 42t41.5 18t44.5 -16t20.5 -39q-9 63 -12 77q-9 44 -25 74q15 -5 42 -5t42 5q-21 -39 -37 -151q0 23 20.5 39t44.5 16t41.5 -18t17.5 -42zM285 1353 q0 81 -32 81q-33 0 -33 -81t33 -81q32 0 32 81zM1408 -189q0 81 -33 81q-32 0 -32 -81t32 -81q33 0 33 81z" />
<glyph unicode="&#x1f0ab;" d="M1578 -244q0 -148 -138 -148h-1252q-138 0 -138 148v1652q0 148 138 148h1252q138 0 138 -148v-1652zM1544 -244v1652q0 114 -104 114h-1252q-104 0 -104 -114v-1652q0 -114 104 -114h1252q104 0 104 114zM285 1429h-28v-110q0 -80 -71 -80q-46 0 -56 48l26 9 q10 -31 33 -31q37 0 37 53v111h-41v26h100v-26zM1494 68q0 -12 -20 -35l-58 -66l-59 66q-20 22 -20 35q0 37 36 37q32 0 39 -26q-8 58 -22 84q9 -3 26 -3q16 0 25 3q-14 -26 -22 -84q7 26 40 26q35 0 35 -37zM1296 -166h-964v1496h964v-1496zM291 1096q0 -37 -36 -37 q-32 0 -39 26q8 -58 22 -84q-9 3 -26 3q-16 0 -25 -3q14 26 22 84q-7 -26 -40 -26q-35 0 -35 37q0 12 20 35l58 66l59 -66q20 -22 20 -35zM1498 -123l-26 -9q-10 31 -33 31q-37 0 -37 -53v-111h41v-26h-100v26h28v110q0 80 71 80q46 0 56 -48zM1284 -154v1472h-940v-1472 h940zM1110 1251l-29 -187l-18 -5q-68 79 -177 79t-177 -79l-18 5l-29 187l10 12h428zM1267 649h-27q12 -15 12 -34q0 -21 -15 -37v-82l-10 -10h-58l-10 10v82q-15 16 -15 37q0 19 12 34h-27v20h38q-28 96 -28 180q0 81 51 162h16q51 -81 51 -162t-28 -180h38v-20zM1069 889 q0 -88 -56 -153q-59 -68 -146 -68q-20 0 -36 4l-16 -41l-19 7l16 40q-1 1 -15 8l-10 -54l-20 4l12 61q-8 6 -16 14l-6 -78l-20 2l7 98q-35 48 -42 115q-16 4 -46 19l-1 14q23 26 58 81q4 13 15 40q42 91 147 91q79 0 136.5 -62.5t57.5 -141.5zM632 1093q0 -57 -64 -57 q-51 0 -51 52q0 11 11 32h-6q-15 -26 -15 -58q0 -23 31 -88h-70q31 65 31 88q0 32 -15 58h-6q11 -21 11 -32q0 -52 -51 -52q-64 0 -64 57q0 36 55 101q64 74 74 100q10 -26 74 -100q55 -65 55 -101zM1141 502q-83 -83 -217 -106l-4 20q126 22 207 100zM708 748 q-126 -22 -207 -100l-14 14q83 83 217 106zM1254 71q0 -36 -55 -101q-64 -74 -74 -100q-10 26 -74 100q-55 65 -55 101q0 57 64 57q51 0 51 -52q0 -11 -11 -32h6q15 26 15 58q0 23 -31 88h70q-31 -65 -31 -88q0 -32 15 -58h6q-11 21 -11 32q0 52 51 52q64 0 64 -57zM973 283 q-23 -26 -58 -81q-4 -13 -15 -40q-42 -91 -147 -91q-79 0 -136.5 62.5t-57.5 141.5q0 88 57.5 154.5t144.5 66.5q20 0 36 -4l16 41l19 -7l-16 -40q1 -1 15 -8l10 54l20 -4l-12 -61q8 -6 16 -14l6 78l20 -2l-7 -98q35 -48 42 -115q16 -4 46 -19zM499 495h-38q28 -96 28 -180 q0 -81 -51 -162h-16q-51 81 -51 162t28 180h-38v20h27q-12 15 -12 34q0 21 15 37v82l10 10h58l10 -10v-82q15 -16 15 -37q0 -19 -12 -34h27v-20zM966 -87l-10 -12h-428l-10 12l29 187l18 5q68 -79 177 -79t177 79l18 -5zM1088 1243h-404l24 -155q72 70 178 70t178 -70z M1237 849q0 70 -39 138q-39 -68 -39 -138q0 -82 29 -181q5 1 10 1t10 -1q29 99 29 181zM1232 615q0 34 -34 34t-34 -34t34 -34t34 34zM1049 889q0 71 -52 127.5t-122 56.5q-91 0 -129 -79q-5 -14 -15 -40q-12 -29 -53 -77l38 -13l5 -8q1 -10 2 -18q35 -9 70 -11l-2 -20 q-32 2 -64 9q6 -25 19 -49l1 7l20 -2l-3 -33q6 -8 19 -19l10 55l20 -4l-12 -64q11 -7 19 -10l31 79l19 -7l-31 -78q14 -3 28 -3q78 0 132 62q50 59 50 139zM1217 506v58q-8 -3 -19 -3t-19 3v-58h38zM449 600v58h-38v-58q8 3 19 3t19 -3zM950 287l-38 13l-5 8q-1 10 -2 18 q-35 9 -70 11l2 20q32 -2 64 -9q-6 25 -19 49l-1 -7l-20 2l3 33q-6 8 -19 19l-10 -55l-20 4l12 64q-11 7 -19 10l-31 -79l-19 7l31 78q-14 3 -28 3q-78 0 -132 -62q-50 -59 -50 -139q0 -71 52 -127.5t122 -56.5q91 0 129 79q5 14 16 41.5t52 75.5zM464 549q0 34 -34 34 t-34 -34t34 -34t34 34zM469 315q0 82 -29 181q-5 -1 -10 -1t-10 1q-29 -99 -29 -181q0 -70 39 -138q39 68 39 138zM944 -79l-24 155q-72 -70 -178 -70t-178 70l-24 -155h404zM845 916q-53 4 -90 0q21 40 46 40q30 0 44 -40zM873 248q-21 -40 -46 -40q-30 0 -44 40 q53 -4 90 0z" />
<glyph unicode="&#x1f0ac;" d="M1578 -244q0 -148 -138 -148h-1252q-138 0 -138 148v1652q0 148 138 148h1252q138 0 138 -148v-1652zM1544 -244v1652q0 114 -104 114h-1252q-104 0 -104 -114v-1652q0 -114 104 -114h1252q104 0 104 114zM283 1267l-16 -7q-27 -12 -56 -12q-102 0 -102 105t102 105 q34 0 72 -18v-36h-6q-32 26 -68 26q-67 0 -67 -77t68 -77q37 0 67 26h6v-35zM1494 68q0 -12 -20 -35l-58 -66l-59 66q-20 22 -20 35q0 37 36 37q32 0 39 -26q-8 58 -22 84q9 -3 26 -3q16 0 25 3q-14 -26 -22 -84q7 26 40 26q35 0 35 -37zM1296 -166h-964v1496h964v-1496z M291 1096q0 -37 -36 -37q-32 0 -39 26q8 -58 22 -84q-9 3 -26 3q-16 0 -25 -3q14 26 22 84q-7 -26 -40 -26q-35 0 -35 37q0 12 20 35l58 66l59 -66q20 -22 20 -35zM1519 -189q0 -105 -102 -105q-34 0 -72 18v36h6q32 -26 68 -26q67 0 67 77t-68 77q-37 0 -67 -26h-6v35l16 7 q27 12 56 12q102 0 102 -105zM1284 -154v1472h-940v-1472h940zM1168 1251l-67 -415l-13 -8q-79 22 -141 22t-141 -22l-13 8l-67 415l10 12h422zM1267 654h-30v-2q15 -16 15 -37q0 -22 -15 -38v-91h-78v91q-15 16 -15 38q0 21 15 37v2h-30v20h30v271l39 72l39 -72v-271h30 v-20zM632 1093q0 -57 -64 -57q-51 0 -51 52q0 11 11 32h-6q-15 -26 -15 -58q0 -23 31 -88h-70q31 65 31 88q0 32 -15 58h-6q11 -21 11 -32q0 -52 -51 -52q-64 0 -64 57q0 36 55 101q64 74 74 100q10 -26 74 -100q55 -65 55 -101zM873 635l-12 -16q-31 24 -64 88 q-43 82 -54 97q-29 40 -29 44q0 10 3 20q-15 -12 -28 -25l-15 1q-13 15 -36 29q6 -17 7 -26l-2 -7q-65 -77 -76 -94q-25 -42 -34 -118q12 -17 33 -20q8 8 94 66q41 28 58 110l20 -4q-17 -79 -48 -108q8 -34 25 -81l-19 -7q-16 46 -24 75q-31 -17 -95 -68l-8 -3q-56 4 -56 39 q0 9 6 42q11 58 38 99q9 13 67 81q-3 14 -14 43l14 12q41 -22 59 -40q13 12 51 42l15 -12q-7 -14 -15 -44l25 -34q11 -15 53 -96q33 -63 61 -85zM1115 537q0 -9 -6 -42q-11 -58 -38 -99q-9 -13 -67 -81q3 -14 14 -43l-14 -12q-41 22 -59 40q-13 -12 -51 -42l-15 12 q7 14 15 44l-25 34q-11 15 -53 96q-33 63 -61 85l12 16q31 -24 64 -88q43 -82 54 -97q29 -40 29 -44q0 -10 -3 -20q15 12 28 25l15 -1q13 -15 36 -29q-6 17 -7 26l2 7q65 77 76 94q25 42 34 118q-12 17 -33 20q-8 -8 -94 -66q-41 -28 -58 -110l-20 4q17 79 48 108 q-8 34 -25 81l19 7q16 -46 24 -75q31 17 95 68l8 3q56 -4 56 -39zM1254 71q0 -36 -55 -101q-64 -74 -74 -100q-10 26 -74 100q-55 65 -55 101q0 57 64 57q51 0 51 -52q0 -11 -11 -32h6q15 26 15 58q0 23 -31 88h70q-31 -65 -31 -88q0 -32 15 -58h6q-11 21 -11 32q0 52 51 52 q64 0 64 -57zM499 490h-30v-271l-39 -72l-39 72v271h-30v20h30v2q-15 16 -15 37q0 22 15 38v91h78v-91q15 -16 15 -38q0 -21 -15 -37v-2h30v-20zM902 -87l-10 -12h-422l-10 12l67 415l13 8q79 -22 141 -22t141 22l13 -8zM1217 665v274l-19 36l-19 -36v-274q11 4 19 4t19 -4z M1146 1243h-398l63 -392q72 19 136 19q63 0 136 -19zM1232 615q0 34 -34 34t-34 -34t34 -34t34 34zM1217 506v58q-8 -3 -19 -3t-19 3v-58h38zM449 600v58h-38v-58q8 3 19 3t19 -3zM464 549q0 34 -34 34t-34 -34t34 -34t34 34zM880 -79l-63 392q-72 -19 -136 -19 q-63 0 -136 19l-63 -392h398zM449 225v274q-11 -4 -19 -4t-19 4v-274l19 -36zM1030 1178l-15 -209l-20 2l15 209zM968 1179l-3 -209h-20l3 209h20zM914 970h-20l-3 209h20zM864 971l-20 -2l-15 209l20 2zM987 928h-112v20h112v-20zM753 216h-112v20h112v-20zM799 -14l-20 -2 l-15 209l20 2zM737 -15h-20l-3 209h20zM683 194l-3 -209h-20l3 209h20zM633 193l-15 -209l-20 2l15 209z" />
<glyph unicode="&#x1f0ad;" d="M1578 -244q0 -148 -138 -148h-1252q-138 0 -138 148v1652q0 148 138 148h1252q138 0 138 -148v-1652zM1544 -244v1652q0 114 -104 114h-1252q-104 0 -104 -114v-1652q0 -114 104 -114h1252q104 0 104 114zM316 1353q0 -88 -82 -103q18 -11 34 -11q1 0 15 4l-13 -32 q-3 -1 -9 -2q-14 0 -38 11.5t-37 11.5q-12 0 -22 -9l-11 17q10 10 20 15q-66 25 -66 99q0 46 29 75t75 29t75.5 -29.5t29.5 -75.5zM1494 68q0 -12 -20 -35l-58 -66l-59 66q-20 22 -20 35q0 37 36 37q32 0 39 -26q-8 58 -22 84q9 -3 26 -3q16 0 25 3q-14 -26 -22 -84 q7 26 40 26q35 0 35 -37zM1296 -166h-964v1496h964v-1496zM291 1096q0 -37 -36 -37q-32 0 -39 26q8 -58 22 -84q-9 3 -26 3q-16 0 -25 -3q14 26 22 84q-7 -26 -40 -26q-35 0 -35 37q0 12 20 35l58 66l59 -66q20 -22 20 -35zM1521 -190q0 -46 -29 -75t-75 -29t-75.5 29.5 t-29.5 75.5q0 88 82 103q-18 11 -34 11q-1 0 -15 -4l13 32q3 1 9 2q14 0 38 -11.5t37 -11.5q12 0 22 9l11 -17q-10 -10 -20 -15q66 -25 66 -99zM283 1353q0 77 -72 77q-71 0 -71 -76q0 -78 71 -78q72 0 72 77zM1284 -154v1472h-940v-1472h940zM1488 -190q0 78 -71 78 q-72 0 -72 -77t72 -77q71 0 71 76zM1121 1277l-26 -172l-16 -7q-60 40 -133 40t-133 -40l-16 7l-26 172l18 8l52 -62l45 61h16l44 -60l44 60h16l45 -61l52 62zM1195 786q0 -62 -17 -139l-10 -8h-150l-9 13q5 13 15 46q-44 -20 -88 -20q-87 0 -149.5 62.5t-62.5 149.5 t62.5 149.5t149.5 62.5q78 0 154 -73q71 -67 93 -147q12 -43 12 -96zM632 1093q0 -57 -64 -57q-51 0 -51 52q0 11 11 32h-6q-15 -26 -15 -58q0 -23 31 -88h-70q31 65 31 88q0 32 -15 58h-6q11 -21 11 -32q0 -52 -51 -52q-64 0 -64 57q0 36 55 101q64 74 74 100 q10 -26 74 -100q55 -65 55 -101zM1182 391q0 -32 -32 -32q-15 0 -25 12q-2 -3 -5 -5q12 -10 12 -25q0 -32 -32 -32t-32 32q0 15 12 25q-3 2 -5 5q-10 -12 -25 -12q-32 0 -32 32t32 32q15 0 25 -12q2 3 5 5q-12 10 -12 25q0 23 22 30v19h-59v20h33q-18 16 -18 40q0 54 54 54 t54 -54q0 -24 -18 -40h33v-20h-59v-19q22 -7 22 -30q0 -15 -12 -25q3 -2 5 -5q10 12 25 12q32 0 32 -32zM1047 461q-74 -48 -149 -61l-4 20q71 12 142 58zM734 744q-71 -12 -142 -58l-11 17q74 48 149 61zM610 773q0 -32 -32 -32q-15 0 -25 12q-2 -3 -5 -5q12 -10 12 -25 q0 -23 -22 -30v-19h59v-20h-33q18 -16 18 -40q0 -54 -54 -54t-54 54q0 24 18 40h-33v20h59v19q-22 7 -22 30q0 15 12 25q-3 2 -5 5q-10 -12 -25 -12q-32 0 -32 32t32 32q15 0 25 -12q2 3 5 5q-12 10 -12 25q0 32 32 32t32 -32q0 -15 -12 -25q3 -2 5 -5q10 12 25 12 q32 0 32 -32zM1254 71q0 -36 -55 -101q-64 -74 -74 -100q-10 26 -74 100q-55 65 -55 101q0 57 64 57q51 0 51 -52q0 -11 -11 -32h6q15 26 15 58q0 23 -31 88h70q-31 -65 -31 -88q0 -32 15 -58h6q-11 21 -11 32q0 52 51 52q64 0 64 -57zM904 274q0 -87 -62.5 -149.5 t-149.5 -62.5q-78 0 -154 73q-71 67 -93 147q-12 43 -12 96q0 62 17 139l10 8h150l9 -13q-5 -13 -15 -46q44 20 88 20q87 0 149.5 -62.5t62.5 -149.5zM857 -113l-18 -8l-52 62l-45 -61h-16l-44 60l-44 -60h-16l-45 61l-52 -62l-18 8l26 172l16 7q60 -40 133 -40t133 40 l16 -7zM1096 1245l-38 -45l-16 1l-44 60l-44 -60h-16l-44 60l-44 -60l-16 -1l-38 45l19 -122q60 35 131 35t131 -35zM1175 786q0 46 -12 90q-32 116 -141 180q46 -100 46 -206q0 -90 -36 -191h128q15 70 15 127zM1048 850q0 111 -55 220q-30 12 -57 12q-79 0 -135.5 -56.5 t-56.5 -135.5t56.5 -135.5t135.5 -56.5q45 0 95 26q17 64 17 126zM1134 550q0 34 -34 34t-34 -34t34 -34t34 34zM1112 441q0 12 -12 12t-12 -12t12 -12t12 12zM1162 391q0 12 -12 12t-12 -12t12 -12t12 12zM1112 391q0 12 -12 12t-12 -12t12 -12t12 12zM1062 391 q0 12 -12 12t-12 -12t12 -12t12 12zM1112 341q0 12 -12 12t-12 -12t12 -12t12 12zM540 823q0 12 -12 12t-12 -12t12 -12t12 12zM590 773q0 12 -12 12t-12 -12t12 -12t12 12zM540 773q0 12 -12 12t-12 -12t12 -12t12 12zM490 773q0 12 -12 12t-12 -12t12 -12t12 12zM540 723 q0 12 -12 12t-12 -12t12 -12t12 12zM562 614q0 34 -34 34t-34 -34t34 -34t34 34zM884 274q0 79 -56.5 135.5t-135.5 56.5q-45 0 -95 -26q-17 -64 -17 -126q0 -111 55 -220q30 -12 57 -12q79 0 135.5 56.5t56.5 135.5zM606 108q-46 100 -46 206q0 90 36 191h-128 q-15 -70 -15 -127q0 -46 12 -90q32 -116 141 -180zM832 -81l-19 122q-60 -35 -131 -35t-131 35l-19 -122l38 45l16 -1l44 -60l44 60h16l44 -60l44 60l16 1zM1017 966q-21 -40 -46 -40q-30 0 -44 40q53 -4 90 0zM937 867h-44l-10 12l16 78l20 -4l-14 -66h32v-20zM887 966 q-21 -40 -46 -40q-30 0 -44 40q53 -4 90 0zM952 826q-15 -36 -48 -36t-48 36l18 8q10 -24 30 -24t30 24zM772 338l-18 -8q-10 24 -30 24t-30 -24l-18 8q16 36 48 36q33 0 48 -36zM831 198q-53 4 -90 0q21 40 46 40q30 0 44 -40zM745 285l-16 -78l-20 4l14 66h-32v20h44z M701 198q-53 4 -90 0q21 40 46 40q30 0 44 -40z" />
<glyph unicode="&#x1f0ae;" d="M1578 -244q0 -148 -138 -148h-1252q-138 0 -138 148v1652q0 148 138 148h1252q138 0 138 -148v-1652zM1544 -244v1652q0 114 -104 114h-1252q-104 0 -104 -114v-1652q0 -114 104 -114h1252q104 0 104 114zM302 1252h-82v25h22l-64 81l66 71h-24v26h80v-26h-22l-62 -71 l64 -81h22v-25zM203 1429h-25v-152h23v-25h-80v25h25v152h-25v26h82v-26zM1494 68q0 -12 -20 -35l-58 -66l-59 66q-20 22 -20 35q0 37 36 37q32 0 39 -26q-8 58 -22 84q9 -3 26 -3q16 0 25 3q-14 -26 -22 -84q7 26 40 26q35 0 35 -37zM1296 -166h-964v1496h964v-1496z M291 1096q0 -37 -36 -37q-32 0 -39 26q8 -58 22 -84q-9 3 -26 3q-16 0 -25 -3q14 26 22 84q-7 -26 -40 -26q-35 0 -35 37q0 12 20 35l58 66l59 -66q20 -22 20 -35zM1507 -291h-82v26h25v152h-23v25h80v-25h-25v-152h25v-26zM1450 -194l-66 -71h24v-26h-80v26h22l62 71 l-64 81h-22v25h82v-25h-22zM1284 -154v1472h-940v-1472h940zM1160 1277l-29 -212l-18 -6q-68 79 -177 79t-177 -79l-18 6l-29 212l18 7l49 -60l42 60h16l42 -60l49 60h16l49 -60l42 60h16l42 -60l49 60zM1267 654h-30v-2q15 -16 15 -37q0 -22 -15 -38v-91h-78v91 q-15 16 -15 38q0 21 15 37v2h-30v20h30v271l39 72l39 -72v-271h30v-20zM1143 895q0 -66 -38 -119t-98 -75l-26 -60l-18 8l19 44q-9 -2 -15 -3l-13 -48l-16 4v-1l-20 -2l-3 46q-5 1 -16 2l9 -45l-20 -4l-10 54q-6 2 -21 8l22 -56l-19 -7l-30 77q-101 61 -101 177q0 85 61 146 t146 61t146 -61t61 -146zM632 1093q0 -57 -64 -57q-51 0 -51 52q0 11 11 32h-6q-15 -26 -15 -58q0 -23 31 -88h-70q31 65 31 88q0 32 -15 58h-6q11 -21 11 -32q0 -52 -51 -52q-64 0 -64 57q0 36 55 101q64 74 74 100q10 -26 74 -100q55 -65 55 -101zM1141 518 q-90 -101 -243 -128l-4 20q143 25 232 121zM734 754q-143 -25 -232 -121l-15 13q90 101 243 128zM1254 71q0 -36 -55 -101q-64 -74 -74 -100q-10 26 -74 100q-55 65 -55 101q0 57 64 57q51 0 51 -52q0 -11 -11 -32h6q15 26 15 58q0 23 -31 88h70q-31 -65 -31 -88 q0 -32 15 -58h6q-11 21 -11 32q0 52 51 52q64 0 64 -57zM899 269q0 -85 -61 -146t-146 -61t-146 61t-61 146q0 66 38 119t98 75l26 60l18 -8l-19 -44q9 2 15 3l13 48l16 -4v1l20 2l3 -46q5 -1 16 -2l-9 45l20 4l10 -54q6 -2 21 -8l-22 56l19 7l30 -77q101 -61 101 -177z M499 490h-30v-271l-39 -72l-39 72v271h-30v20h30v2q-15 16 -15 37q0 22 15 38v91h78v-91q15 -16 15 -38q0 -21 -15 -37v-2h30v-20zM916 -113l-18 -7l-49 60l-42 -60h-16l-42 60l-49 -60h-16l-49 60l-42 -60h-16l-42 60l-49 -60l-18 7l29 212l18 6q68 -79 177 -79t177 79 l18 -6zM1135 1244l-35 -43h-16l-41 59l-41 -59h-16l-50 61l-50 -61h-16l-41 59l-41 -59h-16l-35 43l21 -156q72 70 178 70t178 -70zM1217 665v274l-19 36l-19 -36v-274q11 4 19 4t19 -4zM1123 895q0 77 -55 132t-132 55t-132 -55t-55 -132q0 -86 67 -143l-11 27l19 7l22 -54 q15 -8 28 -13l-12 62l20 4l13 -73q8 -2 18 -3l-5 73l20 2l5 -76h3q3 0 15 1l21 76l19 -5l-18 -68q12 2 20 5l30 69l18 -8l-22 -50q104 52 104 167zM1232 615q0 34 -34 34t-34 -34t34 -34t34 34zM1217 506v58q-8 -3 -19 -3t-19 3v-58h38zM946 688h-11l2 -33zM693 476l-2 33 l-9 -33h11zM449 600v58h-38v-58q8 3 19 3t19 -3zM464 549q0 34 -34 34t-34 -34t34 -34t34 34zM879 269q0 86 -67 143l11 -27l-19 -7l-22 54q-15 8 -28 13l12 -62l-20 -4l-13 73q-8 2 -18 3l5 -73l-20 -2l-5 76h-3q-3 0 -15 -1l-21 -76l-19 5l18 68q-12 -2 -20 -5l-30 -69 l-18 8l22 50q-104 -52 -104 -167q0 -77 55 -132t132 -55t132 55t55 132zM449 225v274q-11 -4 -19 -4t-19 4v-274l19 -36zM891 -80l-21 156q-72 -70 -178 -70t-178 70l-21 -156l35 43h16l41 -59l41 59h16l50 -61l50 61h16l41 -59l41 59h16zM1045 966q-21 -40 -46 -40 q-30 0 -44 40q53 -4 90 0zM962 879l-10 -12h-61v20h48l-16 65l19 5zM915 966q-21 -40 -46 -40q-30 0 -44 40q53 -4 90 0zM1057 854q-13 -51 -56 -51q-19 0 -40 17.5t-25 17.5q-3 0 -24.5 -17.5t-40.5 -17.5q-43 0 -56 51l19 5q9 -36 37 -36q13 0 32.5 17.5t32.5 17.5 t32.5 -17.5t32.5 -17.5q28 0 37 36zM813 310l-19 -5q-9 36 -37 36q-13 0 -32.5 -17.5t-32.5 -17.5t-32.5 17.5t-32.5 17.5q-28 0 -37 -36l-19 5q13 51 56 51q19 0 40 -17.5t25 -17.5q3 0 24.5 17.5t40.5 17.5q43 0 56 -51zM803 198q-53 4 -90 0q21 40 46 40q30 0 44 -40z M737 277h-48l16 -65l-19 -5l-20 78l10 12h61v-20zM673 198q-53 4 -90 0q21 40 46 40q30 0 44 -40z" />
<glyph unicode="&#x1f0b1;" d="M1578 -244q0 -148 -138 -148h-1252q-138 0 -138 148v1652q0 148 138 148h1252q138 0 138 -148v-1652zM1544 -244v1652q0 114 -104 114h-1252q-104 0 -104 -114v-1652q0 -114 104 -114h1252q104 0 104 114zM321 1252h-79v25h24l-16 46h-74l-16 -46h24v-25h-79v25h25 l54 155h-24v23h106v-23h-24l54 -155h25v-25zM1499 4q0 -41 -40 -41q-43 0 -43 37q0 -37 -43 -37q-41 0 -41 41q0 23 84 161q83 -137 83 -161zM960 700q0 -45 -58 -143q-44 -70 -88 -139q-44 69 -88 139q-58 98 -58 143q0 72 71 72q26 0 50.5 -19.5t24.5 -44.5 q0 25 24.5 44.5t50.5 19.5q71 0 71 -72zM296 1160q0 -23 -84 -161q-83 137 -83 161q0 41 40 41q43 0 43 -37q0 37 43 37q41 0 41 -41zM1523 -113h-25l-54 -155h24v-23h-106v23h24l-54 155h-25v25h79v-25h-24l16 -46h74l16 46h-24v25h79v-25zM243 1347l-28 85h-4l-28 -85h60z M1445 -183h-60l28 -85h4z" />
<glyph unicode="&#x1f0b2;" d="M1578 -244q0 -148 -138 -148h-1252q-138 0 -138 148v1652q0 148 138 148h1252q138 0 138 -148v-1652zM1544 -244v1652q0 114 -104 114h-1252q-104 0 -104 -114v-1652q0 -114 104 -114h1252q104 0 104 114zM960 1258q0 -45 -58 -143q-44 -70 -88 -139q-44 69 -88 139 q-58 98 -58 143q0 72 71 72q26 0 50.5 -19.5t24.5 -44.5q0 25 24.5 44.5t50.5 19.5q71 0 71 -72zM277 1324l-1 -72h-130q0 20 8 40q12 30 62 67q18 13 24.5 22.5t6.5 19.5q0 33 -33 33q-39 0 -36 -56h-27v9q0 71 61 71q64 0 64 -55q0 -17 -12 -33q-6 -8 -50 -43 q-35 -27 -38 -49h76l1 46h24zM1499 4q0 -41 -40 -41q-43 0 -43 37q0 -37 -43 -37q-41 0 -41 41q0 23 84 161q83 -137 83 -161zM296 1160q0 -23 -84 -161q-83 137 -83 161q0 41 40 41q43 0 43 -37q0 37 43 37q41 0 41 -41zM1482 -88q0 -20 -8 -40q-12 -30 -62 -67 q-18 -13 -24.5 -22.5t-6.5 -19.5q0 -33 33 -33q39 0 36 56h27v-9q0 -71 -61 -71q-64 0 -64 55q0 17 12 33q6 8 50 43q35 27 38 49h-76l-1 -46h-24l1 72h130zM960 -94q0 -72 -71 -72q-26 0 -50.5 19.5t-24.5 44.5q0 -25 -24.5 -44.5t-50.5 -19.5q-71 0 -71 72q0 45 58 143 q44 70 88 139q44 -69 88 -139q58 -98 58 -143z" />
<glyph unicode="&#x1f0b3;" d="M1578 -244q0 -148 -138 -148h-1252q-138 0 -138 148v1652q0 148 138 148h1252q138 0 138 -148v-1652zM1544 -244v1652q0 114 -104 114h-1252q-104 0 -104 -114v-1652q0 -114 104 -114h1252q104 0 104 114zM960 1258q0 -45 -58 -143q-44 -70 -88 -139q-44 69 -88 139 q-58 98 -58 143q0 72 71 72q26 0 50.5 -19.5t24.5 -44.5q0 25 24.5 44.5t50.5 19.5q71 0 71 -72zM282 1310q0 -30 -21 -46t-49 -16q-71 0 -71 72h28q1 -48 45 -48q39 0 39 37q0 15 -13 26t-47 10v25q51 0 51 31q0 33 -30 33q-34 0 -35 -40h-28q0 34 17.5 49t42.5 15 q61 0 61 -54q0 -33 -28 -46q38 -11 38 -48zM1499 4q0 -41 -40 -41q-43 0 -43 37q0 -37 -43 -37q-41 0 -41 41q0 23 84 161q83 -137 83 -161zM960 700q0 -45 -58 -143q-44 -70 -88 -139q-44 69 -88 139q-58 98 -58 143q0 72 71 72q26 0 50.5 -19.5t24.5 -44.5q0 25 24.5 44.5 t50.5 19.5q71 0 71 -72zM296 1160q0 -23 -84 -161q-83 137 -83 161q0 41 40 41q43 0 43 -37q0 37 43 37q41 0 41 -41zM1487 -156h-28q-1 48 -45 48q-39 0 -39 -37q0 -15 13 -26t47 -10v-25q-51 0 -51 -31q0 -33 30 -33q34 0 35 40h28q0 -34 -17.5 -49t-42.5 -15 q-61 0 -61 54q0 33 28 46q-38 11 -38 48q0 30 21 46t49 16q71 0 71 -72zM960 -94q0 -72 -71 -72q-26 0 -50.5 19.5t-24.5 44.5q0 -25 -24.5 -44.5t-50.5 -19.5q-71 0 -71 72q0 45 58 143q44 70 88 139q44 -69 88 -139q58 -98 58 -143z" />
<glyph unicode="&#x1f0b4;" d="M1578 -244q0 -148 -138 -148h-1252q-138 0 -138 148v1652q0 148 138 148h1252q138 0 138 -148v-1652zM1544 -244v1652q0 114 -104 114h-1252q-104 0 -104 -114v-1652q0 -114 104 -114h1252q104 0 104 114zM1286 1258q0 -45 -58 -143q-44 -70 -88 -139q-44 69 -88 139 q-57 98 -57 143q0 72 71 72q26 0 50 -19.5t24 -44.5q0 25 24.5 44.5t50.5 19.5q71 0 71 -72zM634 1258q0 -45 -58 -143q-44 -70 -88 -139q-44 69 -88 139q-58 98 -58 143q0 72 71 72q26 0 50.5 -19.5t24.5 -44.5q0 25 24.5 44.5t50.5 19.5q71 0 71 -72zM282 1306h-33v-30h19 v-24h-67v24h21v30h-68l-13 23l85 127h23v-126h33v-24zM1499 4q0 -41 -40 -41q-43 0 -43 37q0 -37 -43 -37q-41 0 -41 41q0 23 84 161q83 -137 83 -161zM296 1160q0 -23 -84 -161q-83 137 -83 161q0 41 40 41q43 0 43 -37q0 37 43 37q41 0 41 -41zM1487 -165l-85 -127h-23 v126h-33v24h33v30h-19v24h67v-24h-21v-30h68zM1286 -94q0 -72 -71 -72q-26 0 -50.5 19.5t-24.5 44.5q0 -25 -24 -44.5t-50 -19.5q-71 0 -71 72q0 45 57 143q44 70 88 139q44 -69 88 -139q58 -98 58 -143zM634 -94q0 -72 -71 -72q-26 0 -50.5 19.5t-24.5 44.5 q0 -25 -24.5 -44.5t-50.5 -19.5q-71 0 -71 72q0 45 58 143q44 70 88 139q44 -69 88 -139q58 -98 58 -143zM222 1330v80l-53 -80h53zM1459 -166h-53v-80z" />
<glyph unicode="&#x1f0b5;" d="M1578 -244q0 -148 -138 -148h-1252q-138 0 -138 148v1652q0 148 138 148h1252q138 0 138 -148v-1652zM1544 -244v1652q0 114 -104 114h-1252q-104 0 -104 -114v-1652q0 -114 104 -114h1252q104 0 104 114zM1286 1258q0 -45 -58 -143q-44 -70 -88 -139q-44 69 -88 139 q-57 98 -57 143q0 72 71 72q26 0 50 -19.5t24 -44.5q0 25 24.5 44.5t50.5 19.5q71 0 71 -72zM634 1258q0 -45 -58 -143q-44 -70 -88 -139q-44 69 -88 139q-58 98 -58 143q0 72 71 72q26 0 50.5 -19.5t24.5 -44.5q0 25 24.5 44.5t50.5 19.5q71 0 71 -72zM281 1316 q0 -68 -70 -68q-64 0 -68 68h26q5 -44 42 -44q41 0 41 44q0 43 -38 43q-25 0 -41 -24q-9 9 -20 14l7 106h109v-54h-25v27h-62l-5 -60q20 16 42 16q62 0 62 -68zM1499 4q0 -41 -40 -41q-43 0 -43 37q0 -37 -43 -37q-41 0 -41 41q0 23 84 161q83 -137 83 -161zM960 700 q0 -45 -58 -143q-44 -70 -88 -139q-44 69 -88 139q-58 98 -58 143q0 72 71 72q26 0 50.5 -19.5t24.5 -44.5q0 25 24.5 44.5t50.5 19.5q71 0 71 -72zM296 1160q0 -23 -84 -161q-83 137 -83 161q0 41 40 41q43 0 43 -37q0 37 43 37q41 0 41 -41zM1485 -152h-26q-5 44 -42 44 q-41 0 -41 -44q0 -43 38 -43q25 0 41 24q9 -9 20 -14l-7 -106h-109v54h25v-27h62l5 60q-20 -16 -42 -16q-62 0 -62 68t70 68q64 0 68 -68zM1286 -94q0 -72 -71 -72q-26 0 -50.5 19.5t-24.5 44.5q0 -25 -24 -44.5t-50 -19.5q-71 0 -71 72q0 45 57 143q44 70 88 139 q44 -69 88 -139q58 -98 58 -143zM634 -94q0 -72 -71 -72q-26 0 -50.5 19.5t-24.5 44.5q0 -25 -24.5 -44.5t-50.5 -19.5q-71 0 -71 72q0 45 58 143q44 70 88 139q44 -69 88 -139q58 -98 58 -143z" />
<glyph unicode="&#x1f0b6;" d="M1578 -244q0 -148 -138 -148h-1252q-138 0 -138 148v1652q0 148 138 148h1252q138 0 138 -148v-1652zM1544 -244v1652q0 114 -104 114h-1252q-104 0 -104 -114v-1652q0 -114 104 -114h1252q104 0 104 114zM1286 1258q0 -45 -58 -143q-44 -70 -88 -139q-44 69 -88 139 q-57 98 -57 143q0 72 71 72q26 0 50 -19.5t24 -44.5q0 25 24.5 44.5t50.5 19.5q71 0 71 -72zM1286 700q0 -45 -58 -143q-44 -70 -88 -139q-44 69 -88 139q-57 98 -57 143q0 72 71 72q26 0 50 -19.5t24 -44.5q0 25 24.5 44.5t50.5 19.5q71 0 71 -72zM634 1258q0 -45 -58 -143 q-44 -70 -88 -139q-44 69 -88 139q-58 98 -58 143q0 72 71 72q26 0 50.5 -19.5t24.5 -44.5q0 25 24.5 44.5t50.5 19.5q71 0 71 -72zM277 1318q0 -70 -61 -70q-32 0 -51 26t-19 78q0 106 71 106q57 0 59 -63h-26q-5 39 -35 39q-41 0 -42 -76q21 23 48 23q56 0 56 -63zM1499 4 q0 -41 -40 -41q-43 0 -43 37q0 -37 -43 -37q-41 0 -41 41q0 23 84 161q83 -137 83 -161zM296 1160q0 -23 -84 -161q-83 137 -83 161q0 41 40 41q43 0 43 -37q0 37 43 37q41 0 41 -41zM1482 -188q0 -106 -71 -106q-57 0 -59 63h26q5 -39 35 -39q41 0 42 76q-21 -23 -48 -23 q-56 0 -56 63q0 70 61 70q32 0 51 -26t19 -78zM1286 -94q0 -72 -71 -72q-26 0 -50.5 19.5t-24.5 44.5q0 -25 -24 -44.5t-50 -19.5q-71 0 -71 72q0 45 57 143q44 70 88 139q44 -69 88 -139q58 -98 58 -143zM634 700q0 -45 -58 -143q-44 -70 -88 -139q-44 69 -88 139 q-58 98 -58 143q0 72 71 72q26 0 50.5 -19.5t24.5 -44.5q0 25 24.5 44.5t50.5 19.5q71 0 71 -72zM634 -94q0 -72 -71 -72q-26 0 -50.5 19.5t-24.5 44.5q0 -25 -24.5 -44.5t-50.5 -19.5q-71 0 -71 72q0 45 58 143q44 70 88 139q44 -69 88 -139q58 -98 58 -143zM252 1315 q0 39 -35 39q-22 0 -43 -26q7 -56 41 -56q37 0 37 43zM1454 -164q-7 56 -41 56q-37 0 -37 -43q0 -39 35 -39q22 0 43 26z" />
<glyph unicode="&#x1f0b7;" d="M1578 -244q0 -148 -138 -148h-1252q-138 0 -138 148v1652q0 148 138 148h1252q138 0 138 -148v-1652zM1544 -244v1652q0 114 -104 114h-1252q-104 0 -104 -114v-1652q0 -114 104 -114h1252q104 0 104 114zM1286 1258q0 -45 -58 -143q-44 -70 -88 -139q-44 69 -88 139 q-57 98 -57 143q0 72 71 72q26 0 50 -19.5t24 -44.5q0 25 24.5 44.5t50.5 19.5q71 0 71 -72zM1286 700q0 -45 -58 -143q-44 -70 -88 -139q-44 69 -88 139q-57 98 -57 143q0 72 71 72q26 0 50 -19.5t24 -44.5q0 25 24.5 44.5t50.5 19.5q71 0 71 -72zM960 954q0 -45 -58 -143 q-44 -70 -88 -139q-44 69 -88 139q-58 98 -58 143q0 72 71 72q26 0 50.5 -20t24.5 -45q0 25 24.5 45t50.5 20q71 0 71 -72zM634 1258q0 -45 -58 -143q-44 -70 -88 -139q-44 69 -88 139q-58 98 -58 143q0 72 71 72q26 0 50.5 -19.5t24.5 -44.5q0 25 24.5 44.5t50.5 19.5 q71 0 71 -72zM276 1433q-56 -67 -56 -157h23v-24h-80v24h28q5 85 52 152h-70v-27h-24v54h127v-22zM1499 4q0 -41 -40 -41q-43 0 -43 37q0 -37 -43 -37q-41 0 -41 41q0 23 84 161q83 -137 83 -161zM296 1160q0 -23 -84 -161q-83 137 -83 161q0 41 40 41q43 0 43 -37 q0 37 43 37q41 0 41 -41zM1479 -291h-127v22q56 67 56 157h-23v24h80v-24h-28q-5 -85 -52 -152h70v27h24v-54zM1286 -94q0 -72 -71 -72q-26 0 -50.5 19.5t-24.5 44.5q0 -25 -24 -44.5t-50 -19.5q-71 0 -71 72q0 45 57 143q44 70 88 139q44 -69 88 -139q58 -98 58 -143z M634 700q0 -45 -58 -143q-44 -70 -88 -139q-44 69 -88 139q-58 98 -58 143q0 72 71 72q26 0 50.5 -19.5t24.5 -44.5q0 25 24.5 44.5t50.5 19.5q71 0 71 -72zM634 -94q0 -72 -71 -72q-26 0 -50.5 19.5t-24.5 44.5q0 -25 -24.5 -44.5t-50.5 -19.5q-71 0 -71 72q0 45 58 143 q44 70 88 139q44 -69 88 -139q58 -98 58 -143z" />
<glyph unicode="&#x1f0b8;" d="M1578 -244q0 -148 -138 -148h-1252q-138 0 -138 148v1652q0 148 138 148h1252q138 0 138 -148v-1652zM1544 -244v1652q0 114 -104 114h-1252q-104 0 -104 -114v-1652q0 -114 104 -114h1252q104 0 104 114zM1286 1258q0 -45 -58 -143q-44 -70 -88 -139q-44 69 -88 139 q-57 98 -57 143q0 72 71 72q26 0 50 -19.5t24 -44.5q0 25 24.5 44.5t50.5 19.5q71 0 71 -72zM1286 700q0 -45 -58 -143q-44 -70 -88 -139q-44 69 -88 139q-57 98 -57 143q0 72 71 72q26 0 50 -19.5t24 -44.5q0 25 24.5 44.5t50.5 19.5q71 0 71 -72zM960 954q0 -45 -58 -143 q-44 -70 -88 -139q-44 69 -88 139q-58 98 -58 143q0 72 71 72q26 0 50.5 -20t24.5 -45q0 25 24.5 45t50.5 20q71 0 71 -72zM634 1258q0 -45 -58 -143q-44 -70 -88 -139q-44 69 -88 139q-58 98 -58 143q0 72 71 72q26 0 50.5 -19.5t24.5 -44.5q0 25 24.5 44.5t50.5 19.5 q71 0 71 -72zM282 1307q0 -59 -68 -59q-73 0 -73 59q0 37 36 51q-29 17 -29 47q0 53 62 53q66 0 66 -53q0 -30 -29 -47q35 -14 35 -51zM1499 4q0 -41 -40 -41q-43 0 -43 37q0 -37 -43 -37q-41 0 -41 41q0 23 84 161q83 -137 83 -161zM296 1160q0 -23 -84 -161 q-83 137 -83 161q0 41 40 41q43 0 43 -37q0 37 43 37q41 0 41 -41zM1487 -143q0 -37 -36 -51q29 -17 29 -47q0 -53 -62 -53q-66 0 -66 53q0 30 29 47q-35 14 -35 51q0 59 68 59q73 0 73 -59zM960 237q0 -72 -71 -72q-26 0 -50.5 19.5t-24.5 44.5q0 -25 -24.5 -44.5 t-50.5 -19.5q-71 0 -71 72q0 45 58 143q44 70 88 139q44 -69 88 -139q58 -98 58 -143zM1286 -94q0 -72 -71 -72q-26 0 -50.5 19.5t-24.5 44.5q0 -25 -24 -44.5t-50 -19.5q-71 0 -71 72q0 45 57 143q44 70 88 139q44 -69 88 -139q58 -98 58 -143zM634 700q0 -45 -58 -143 q-44 -70 -88 -139q-44 69 -88 139q-58 98 -58 143q0 72 71 72q26 0 50.5 -19.5t24.5 -44.5q0 25 24.5 44.5t50.5 19.5q71 0 71 -72zM634 -94q0 -72 -71 -72q-26 0 -50.5 19.5t-24.5 44.5q0 -25 -24.5 -44.5t-50.5 -19.5q-71 0 -71 72q0 45 58 143q44 70 88 139 q44 -69 88 -139q58 -98 58 -143zM249 1401q0 33 -38 33q-37 0 -37 -33q0 -31 38 -31q37 0 37 31zM253 1309q0 36 -42 36q-41 0 -41 -36q0 -37 42 -37q41 0 41 37zM1458 -145q0 37 -42 37q-41 0 -41 -37q0 -36 42 -36q41 0 41 36zM1454 -237q0 31 -38 31q-37 0 -37 -31 q0 -33 38 -33q37 0 37 33z" />
<glyph unicode="&#x1f0b9;" d="M1578 -244q0 -148 -138 -148h-1252q-138 0 -138 148v1652q0 148 138 148h1252q138 0 138 -148v-1652zM1544 -244v1652q0 114 -104 114h-1252q-104 0 -104 -114v-1652q0 -114 104 -114h1252q104 0 104 114zM1286 1258q0 -45 -58 -143q-44 -70 -88 -139q-44 69 -88 139 q-57 98 -57 143q0 72 71 72q26 0 50 -19.5t24 -44.5q0 25 24.5 44.5t50.5 19.5q71 0 71 -72zM1286 877q0 -45 -58 -143l-88 -138l-88 138q-57 98 -57 143q0 73 71 73q26 0 50 -20t24 -45q0 25 24.5 45t50.5 20q71 0 71 -73zM634 1258q0 -45 -58 -143q-44 -70 -88 -139 q-44 69 -88 139q-58 98 -58 143q0 72 71 72q26 0 50.5 -19.5t24.5 -44.5q0 25 24.5 44.5t50.5 19.5q71 0 71 -72zM277 1354q0 -106 -71 -106q-56 0 -58 63h25q5 -39 36 -39q40 0 41 76q-21 -23 -47 -23q-57 0 -57 64q0 69 61 69q32 0 51 -26t19 -78zM1286 286q0 -72 -71 -72 q-26 0 -50.5 20t-24.5 45q0 -25 -24 -45t-50 -20q-71 0 -71 72q0 45 57 143q44 70 88 139q44 -69 88 -139q58 -98 58 -143zM1499 4q0 -41 -40 -41q-43 0 -43 37q0 -37 -43 -37q-41 0 -41 41q0 23 84 161q83 -137 83 -161zM960 700q0 -45 -58 -143q-44 -70 -88 -139 q-44 69 -88 139q-58 98 -58 143q0 72 71 72q26 0 50.5 -19.5t24.5 -44.5q0 25 24.5 44.5t50.5 19.5q71 0 71 -72zM296 1160q0 -23 -84 -161q-83 137 -83 161q0 41 40 41q43 0 43 -37q0 37 43 37q41 0 41 -41zM634 877q0 -45 -58 -143l-88 -138l-88 138q-58 98 -58 143 q0 73 71 73q26 0 50.5 -20t24.5 -45q0 25 24.5 45t50.5 20q71 0 71 -73zM1482 -225q0 -69 -61 -69q-32 0 -51 26t-19 78q0 106 71 106q56 0 58 -63h-25q-5 39 -36 39q-40 0 -41 -76q21 23 47 23q57 0 57 -64zM1286 -94q0 -72 -71 -72q-26 0 -50.5 19.5t-24.5 44.5 q0 -25 -24 -44.5t-50 -19.5q-71 0 -71 72q0 45 57 143q44 70 88 139q44 -69 88 -139q58 -98 58 -143zM634 286q0 -72 -71 -72q-26 0 -50.5 20t-24.5 45q0 -25 -24.5 -45t-50.5 -20q-71 0 -71 72q0 45 58 143q44 70 88 139q44 -69 88 -139q58 -98 58 -143zM634 -94 q0 -72 -71 -72q-26 0 -50.5 19.5t-24.5 44.5q0 -25 -24.5 -44.5t-50.5 -19.5q-71 0 -71 72q0 45 58 143q44 70 88 139q44 -69 88 -139q58 -98 58 -143zM249 1378q-6 56 -40 56q-37 0 -37 -43q0 -39 34 -39q22 0 43 26zM1456 -227q0 39 -34 39q-22 0 -43 -26q6 -56 40 -56 q37 0 37 43z" />
<glyph unicode="&#x1f0ba;" d="M1578 -244q0 -148 -138 -148h-1252q-138 0 -138 148v1652q0 148 138 148h1252q138 0 138 -148v-1652zM1544 -244v1652q0 114 -104 114h-1252q-104 0 -104 -114v-1652q0 -114 104 -114h1252q104 0 104 114zM1286 1258q0 -45 -58 -143q-44 -70 -88 -139q-44 69 -88 139 q-57 98 -57 143q0 72 71 72q26 0 50 -19.5t24 -44.5q0 25 24.5 44.5t50.5 19.5q71 0 71 -72zM1286 877q0 -45 -58 -143l-88 -138l-88 138q-57 98 -57 143q0 73 71 73q26 0 50 -20t24 -45q0 25 24.5 45t50.5 20q71 0 71 -73zM960 1080q0 -45 -58 -143l-88 -138l-88 138 q-58 98 -58 143q0 73 71 73q26 0 50.5 -20t24.5 -45q0 25 24.5 45t50.5 20q71 0 71 -73zM634 1258q0 -45 -58 -143q-44 -70 -88 -139q-44 69 -88 139q-58 98 -58 143q0 72 71 72q26 0 50.5 -19.5t24.5 -44.5q0 25 24.5 44.5t50.5 19.5q71 0 71 -72zM314 1353 q0 -105 -61 -105q-62 0 -62 105t62 105q61 0 61 -105zM1286 286q0 -72 -71 -72q-26 0 -50.5 20t-24.5 45q0 -25 -24 -45t-50 -20q-71 0 -71 72q0 45 57 143q44 70 88 139q44 -69 88 -139q58 -98 58 -143zM191 1252h-83v24h28v154h-28v25h56v-179h27v-24zM1499 4 q0 -41 -40 -41q-43 0 -43 37q0 -37 -43 -37q-41 0 -41 41q0 23 84 161q83 -137 83 -161zM296 1160q0 -23 -84 -161q-83 137 -83 161q0 41 40 41q43 0 43 -37q0 37 43 37q41 0 41 -41zM1520 -291h-56v179h-27v24h83v-24h-28v-154h28v-25zM634 877q0 -45 -58 -143l-88 -138 l-88 138q-58 98 -58 143q0 73 71 73q26 0 50.5 -20t24.5 -45q0 25 24.5 45t50.5 20q71 0 71 -73zM1437 -189q0 -105 -62 -105q-61 0 -61 105t61 105q62 0 62 -105zM1286 -94q0 -72 -71 -72q-26 0 -50.5 19.5t-24.5 44.5q0 -25 -24 -44.5t-50 -19.5q-71 0 -71 72q0 45 57 143 q44 70 88 139q44 -69 88 -139q58 -98 58 -143zM960 110q0 -72 -71 -72q-26 0 -50.5 20t-24.5 45q0 -25 -24.5 -45t-50.5 -20q-71 0 -71 72q0 45 58 143q44 70 88 139q44 -69 88 -139q58 -98 58 -143zM634 286q0 -72 -71 -72q-26 0 -50.5 20t-24.5 45q0 -25 -24.5 -45 t-50.5 -20q-71 0 -71 72q0 45 58 143q44 70 88 139q44 -69 88 -139q58 -98 58 -143zM634 -94q0 -72 -71 -72q-26 0 -50.5 19.5t-24.5 44.5q0 -25 -24.5 -44.5t-50.5 -19.5q-71 0 -71 72q0 45 58 143q44 70 88 139q44 -69 88 -139q58 -98 58 -143zM285 1353q0 81 -32 81 q-33 0 -33 -81t33 -81q32 0 32 81zM1408 -189q0 81 -33 81q-32 0 -32 -81t32 -81q33 0 33 81z" />
<glyph unicode="&#x1f0bb;" d="M1578 -244q0 -148 -138 -148h-1252q-138 0 -138 148v1652q0 148 138 148h1252q138 0 138 -148v-1652zM1544 -244v1652q0 114 -104 114h-1252q-104 0 -104 -114v-1652q0 -114 104 -114h1252q104 0 104 114zM285 1429h-28v-110q0 -80 -71 -80q-46 0 -56 48l26 9 q10 -31 33 -31q37 0 37 53v111h-41v26h100v-26zM1499 4q0 -41 -40 -41q-43 0 -43 37q0 -37 -43 -37q-41 0 -41 41q0 23 84 161q83 -137 83 -161zM1296 -166h-964v1496h964v-1496zM296 1160q0 -23 -84 -161q-83 137 -83 161q0 41 40 41q43 0 43 -37q0 37 43 37q41 0 41 -41z M1498 -123l-26 -9q-10 31 -33 31q-37 0 -37 -53v-111h41v-26h-100v26h28v110q0 80 71 80q46 0 56 -48zM1284 -154v1472h-940v-1472h940zM1110 1251l-29 -187l-18 -5q-68 79 -177 79t-177 -79l-18 5l-29 187l10 12h428zM1267 654h-30v-2q15 -16 15 -37q0 -22 -15 -38v-91h-78 v91q-15 16 -15 38q0 21 15 37v2h-30v20h30v229h-8v-86l-16 -8q-57 38 -57 104q0 75 58 105l15 -9v-86h8v22l39 72l39 -72v-271h30v-20zM1069 889q0 -88 -56 -153q-59 -68 -146 -68q-20 0 -36 4l-16 -41l-19 7l16 40q-1 1 -15 8l-10 -54l-20 4l12 61q-8 6 -16 14l-6 -78 l-20 2l7 98q-35 48 -42 115q-16 4 -46 19l-1 14q23 26 58 81q4 13 15 40q42 91 147 91q79 0 136.5 -62.5t57.5 -141.5zM632 1224q0 -44 -62 -130q-63 -89 -67 -123q-4 34 -67 123q-62 86 -62 130q0 24 17.5 44t41.5 20q62 0 68 -77h4q6 77 68 77q24 0 41.5 -20t17.5 -44z M1141 502q-83 -83 -217 -106l-4 20q126 22 207 100zM708 748q-126 -22 -207 -100l-14 14q83 83 217 106zM1254 -60q0 -24 -17.5 -44t-41.5 -20q-62 0 -68 77h-4q-6 -77 -68 -77q-24 0 -41.5 20t-17.5 44q0 44 62.5 131.5t66.5 121.5q4 -34 66.5 -121.5t62.5 -131.5zM973 283 q-23 -26 -58 -81q-4 -13 -15 -40q-42 -91 -147 -91q-79 0 -136.5 62.5t-57.5 141.5q0 88 57.5 154.5t144.5 66.5q20 0 36 -4l16 41l19 -7l-16 -40q1 -1 15 -8l10 54l20 -4l-12 -61q8 -6 16 -14l6 78l20 -2l-7 -98q35 -48 42 -115q16 -4 46 -19zM550 251q0 -75 -58 -105 l-15 9v86h-8v-22l-39 -72l-39 72v271h-30v20h30v2q-15 16 -15 37q0 22 15 38v91h78v-91q15 -16 15 -38q0 -21 -15 -37v-2h30v-20h-30v-229h8v86l16 8q57 -38 57 -104zM966 -87l-10 -12h-428l-10 12l29 187l18 5q68 -79 177 -79t177 79l18 -5zM1088 1243h-404l24 -155 q72 70 178 70t178 -70zM1131 837v154q-33 -26 -33 -78q0 -46 33 -76zM1217 665v274l-19 36l-19 -36v-274q11 4 19 4t19 -4zM1232 615q0 34 -34 34t-34 -34t34 -34t34 34zM1049 889q0 71 -52 127.5t-122 56.5q-91 0 -129 -79q-5 -14 -15 -40q-12 -29 -53 -77l38 -13l5 -8 q1 -10 2 -18q35 -9 70 -11l-2 -20q-32 2 -64 9q6 -25 19 -49l1 7l20 -2l-3 -33q6 -8 19 -19l10 55l20 -4l-12 -64q11 -7 19 -10l31 79l19 -7l-31 -78q14 -3 28 -3q78 0 132 62q50 59 50 139zM1217 506v58q-8 -3 -19 -3t-19 3v-58h38zM449 600v58h-38v-58q8 3 19 3t19 -3z M950 287l-38 13l-5 8q-1 10 -2 18q-35 9 -70 11l2 20q32 -2 64 -9q-6 25 -19 49l-1 -7l-20 2l3 33q-6 8 -19 19l-10 -55l-20 4l12 64q-11 7 -19 10l-31 -79l-19 7l31 78q-14 3 -28 3q-78 0 -132 -62q-50 -59 -50 -139q0 -71 52 -127.5t122 -56.5q91 0 129 79q5 14 16 41.5 t52 75.5zM464 549q0 34 -34 34t-34 -34t34 -34t34 34zM449 225v274q-11 -4 -19 -4t-19 4v-274l19 -36zM530 251q0 46 -33 76v-154q33 26 33 78zM944 -79l-24 155q-72 -70 -178 -70t-178 70l-24 -155h404zM845 916q-53 4 -90 0q21 40 46 40q30 0 44 -40zM873 248 q-21 -40 -46 -40q-30 0 -44 40q53 -4 90 0z" />
<glyph unicode="&#x1f0bc;" d="M1578 -244q0 -148 -138 -148h-1252q-138 0 -138 148v1652q0 148 138 148h1252q138 0 138 -148v-1652zM1544 -244v1652q0 114 -104 114h-1252q-104 0 -104 -114v-1652q0 -114 104 -114h1252q104 0 104 114zM283 1267l-16 -7q-27 -12 -56 -12q-102 0 -102 105t102 105 q34 0 72 -18v-36h-6q-32 26 -68 26q-67 0 -67 -77t68 -77q37 0 67 26h6v-35zM1499 4q0 -41 -40 -41q-43 0 -43 37q0 -37 -43 -37q-41 0 -41 41q0 23 84 161q83 -137 83 -161zM1296 -166h-964v1496h964v-1496zM296 1160q0 -23 -84 -161q-83 137 -83 161q0 41 40 41 q43 0 43 -37q0 37 43 37q41 0 41 -41zM1519 -189q0 -105 -102 -105q-34 0 -72 18v36h6q32 -26 68 -26q67 0 67 77t-68 77q-37 0 -67 -26h-6v35l16 7q27 12 56 12q102 0 102 -105zM1284 -154v1472h-940v-1472h940zM1168 1251l-67 -415l-13 -8q-79 22 -141 22t-141 -22l-13 8 l-67 415l10 12h422zM1267 654h-30v-2q15 -16 15 -37q0 -22 -15 -38v-91h-78v91q-15 16 -15 38q0 21 15 37v2h-30v20h30v271l39 72l39 -72v-271h30v-20zM632 1224q0 -44 -62 -130q-63 -89 -67 -123q-4 34 -67 123q-62 86 -62 130q0 24 17.5 44t41.5 20q62 0 68 -77h4 q6 77 68 77q24 0 41.5 -20t17.5 -44zM873 635l-12 -16q-31 24 -64 88q-43 82 -54 97q-29 40 -29 44q0 10 3 20q-15 -12 -28 -25l-15 1q-13 15 -36 29q6 -17 7 -26l-2 -7q-65 -77 -76 -94q-25 -42 -34 -118q12 -17 33 -20q8 8 94 66q41 28 58 110l20 -4q-17 -79 -48 -108 q8 -34 25 -81l-19 -7q-16 46 -24 75q-31 -17 -95 -68l-8 -3q-56 4 -56 39q0 9 6 42q11 58 38 99q9 13 67 81q-3 14 -14 43l14 12q41 -22 59 -40q13 12 51 42l15 -12q-7 -14 -15 -44l25 -34q11 -15 53 -96q33 -63 61 -85zM1115 537q0 -9 -6 -42q-11 -58 -38 -99 q-9 -13 -67 -81q3 -14 14 -43l-14 -12q-41 22 -59 40q-13 -12 -51 -42l-15 12q7 14 15 44l-25 34q-11 15 -53 96q-33 63 -61 85l12 16q31 -24 64 -88q43 -82 54 -97q29 -40 29 -44q0 -10 -3 -20q15 12 28 25l15 -1q13 -15 36 -29q-6 17 -7 26l2 7q65 77 76 94q25 42 34 118 q-12 17 -33 20q-8 -8 -94 -66q-41 -28 -58 -110l-20 4q17 79 48 108q-8 34 -25 81l19 7q16 -46 24 -75q31 17 95 68l8 3q56 -4 56 -39zM1254 -60q0 -24 -17.5 -44t-41.5 -20q-62 0 -68 77h-4q-6 -77 -68 -77q-24 0 -41.5 20t-17.5 44q0 44 62.5 131.5t66.5 121.5 q4 -34 66.5 -121.5t62.5 -131.5zM499 490h-30v-271l-39 -72l-39 72v271h-30v20h30v2q-15 16 -15 37q0 22 15 38v91h78v-91q15 -16 15 -38q0 -21 -15 -37v-2h30v-20zM902 -87l-10 -12h-422l-10 12l67 415l13 8q79 -22 141 -22t141 22l13 -8zM1217 665v274l-19 36l-19 -36 v-274q11 4 19 4t19 -4zM1146 1243h-398l63 -392q72 19 136 19q63 0 136 -19zM1232 615q0 34 -34 34t-34 -34t34 -34t34 34zM1217 506v58q-8 -3 -19 -3t-19 3v-58h38zM449 600v58h-38v-58q8 3 19 3t19 -3zM464 549q0 34 -34 34t-34 -34t34 -34t34 34zM880 -79l-63 392 q-72 -19 -136 -19q-63 0 -136 19l-63 -392h398zM449 225v274q-11 -4 -19 -4t-19 4v-274l19 -36zM1030 1178l-15 -209l-20 2l15 209zM968 1179l-3 -209h-20l3 209h20zM914 970h-20l-3 209h20zM864 971l-20 -2l-15 209l20 2zM987 928h-112v20h112v-20zM753 216h-112v20h112 v-20zM799 -14l-20 -2l-15 209l20 2zM737 -15h-20l-3 209h20zM683 194l-3 -209h-20l3 209h20zM633 193l-15 -209l-20 2l15 209z" />
<glyph unicode="&#x1f0bd;" d="M1578 -244q0 -148 -138 -148h-1252q-138 0 -138 148v1652q0 148 138 148h1264q126 0 126 -148v-1652zM1544 -244v1652q0 114 -104 114h-1252q-104 0 -104 -114v-1652q0 -114 104 -114h1252q104 0 104 114zM316 1353q0 -88 -82 -103q18 -11 34 -11q1 0 15 4l-13 -32 q-3 -1 -9 -2q-14 0 -38 11.5t-37 11.5q-12 0 -22 -9l-11 17q10 10 20 15q-66 25 -66 99q0 46 29 75t75 29t75.5 -29.5t29.5 -75.5zM1499 4q0 -41 -40 -41q-43 0 -43 37q0 -37 -43 -37q-41 0 -41 41q0 23 84 161q83 -137 83 -161zM1296 -166h-964v1496h964v-1496zM296 1160 q0 -23 -84 -161q-83 137 -83 161q0 41 40 41q43 0 43 -37q0 37 43 37q41 0 41 -41zM1521 -190q0 -46 -29 -75t-75 -29t-75.5 29.5t-29.5 75.5q0 88 82 103q-18 11 -34 11q-1 0 -15 -4l13 32q3 1 9 2q14 0 38 -11.5t37 -11.5q12 0 22 9l11 -17q-10 -10 -20 -15q66 -25 66 -99 zM283 1353q0 77 -72 77q-71 0 -71 -76q0 -78 71 -78q72 0 72 77zM1284 -154v1472h-940v-1472h940zM1488 -190q0 78 -71 78q-72 0 -72 -77t72 -77q71 0 71 76zM1121 1277l-26 -172l-16 -7q-60 40 -133 40t-133 -40l-16 7l-26 172l18 8l52 -62l45 61h16l44 -60l44 60h16 l45 -61l52 62zM1195 786q0 -62 -17 -139l-10 -8h-150l-9 13q5 13 15 46q-44 -20 -88 -20q-87 0 -149.5 62.5t-62.5 149.5t62.5 149.5t149.5 62.5q78 0 154 -73q71 -67 93 -147q12 -43 12 -96zM632 1224q0 -44 -62 -130q-63 -89 -67 -123q-4 34 -67 123q-62 86 -62 130 q0 24 17.5 44t41.5 20q62 0 68 -77h4q6 77 68 77q24 0 41.5 -20t17.5 -44zM1195 391q-29 -32 -45 -32q-15 0 -25 12q-2 -3 -5 -5q12 -10 12 -25q0 -16 -32 -45q-32 29 -32 45q0 15 12 25q-3 2 -5 5q-10 -12 -25 -12q-16 0 -45 32q29 32 45 32q15 0 25 -12q2 3 5 5 q-12 10 -12 25t22 36v13h-59v20h33q-18 16 -18 40q0 54 54 54t54 -54q0 -24 -18 -40h33v-20h-59v-13q22 -21 22 -36t-12 -25q3 -2 5 -5q10 12 25 12q16 0 45 -32zM1047 461q-74 -48 -149 -61l-4 20q71 12 142 58zM734 744q-71 -12 -142 -58l-11 17q74 48 149 61zM623 773 q-29 -32 -45 -32q-15 0 -25 12q-2 -3 -5 -5q12 -10 12 -25t-22 -36v-13h59v-20h-33q18 -16 18 -40q0 -54 -54 -54t-54 54q0 24 18 40h-33v20h59v13q-22 21 -22 36t12 25q-3 2 -5 5q-10 -12 -25 -12q-16 0 -45 32q29 32 45 32q15 0 25 -12q2 3 5 5q-12 10 -12 25q0 16 32 45 q32 -29 32 -45q0 -15 -12 -25q3 -2 5 -5q10 12 25 12q16 0 45 -32zM1254 -60q0 -24 -17.5 -44t-41.5 -20q-62 0 -68 77h-4q-6 -77 -68 -77q-24 0 -41.5 20t-17.5 44q0 44 62.5 131.5t66.5 121.5q4 -34 66.5 -121.5t62.5 -131.5zM904 274q0 -87 -62.5 -149.5t-149.5 -62.5 q-78 0 -154 73q-71 67 -93 147q-12 43 -12 96q0 62 17 139l10 8h150l9 -13q-5 -13 -15 -46q44 20 88 20q87 0 149.5 -62.5t62.5 -149.5zM857 -113l-18 -8l-52 62l-45 -61h-16l-44 60l-44 -60h-16l-45 61l-52 -62l-18 8l26 172l16 7q60 -40 133 -40t133 40l16 -7zM1096 1245 l-38 -45l-16 1l-44 60l-44 -60h-16l-44 60l-44 -60l-16 -1l-38 45l19 -122q60 35 131 35t131 -35zM1175 786q0 46 -12 90q-32 116 -141 180q46 -100 46 -206q0 -90 -36 -191h128q15 70 15 127zM1048 850q0 111 -55 220q-30 12 -57 12q-79 0 -135.5 -56.5t-56.5 -135.5 t56.5 -135.5t135.5 -56.5q45 0 95 26q17 64 17 126zM1134 550q0 34 -34 34t-34 -34t34 -34t34 34zM1112 441q0 5 -12 18q-12 -13 -12 -18q0 -12 12 -12t12 12zM1168 391q-13 12 -18 12q-12 0 -12 -12t12 -12q5 0 18 12zM1112 391q0 12 -12 12t-12 -12t12 -12t12 12z M1062 391q0 12 -12 12q-5 0 -18 -12q13 -12 18 -12q12 0 12 12zM1112 341q0 12 -12 12t-12 -12q0 -5 12 -18q12 13 12 18zM540 823q0 5 -12 18q-12 -13 -12 -18q0 -12 12 -12t12 12zM596 773q-13 12 -18 12q-12 0 -12 -12t12 -12q5 0 18 12zM540 773q0 12 -12 12t-12 -12 t12 -12t12 12zM490 773q0 12 -12 12q-5 0 -18 -12q13 -12 18 -12q12 0 12 12zM540 723q0 12 -12 12t-12 -12q0 -5 12 -18q12 13 12 18zM562 614q0 34 -34 34t-34 -34t34 -34t34 34zM884 274q0 79 -56.5 135.5t-135.5 56.5q-45 0 -95 -26q-17 -64 -17 -126q0 -111 55 -220 q30 -12 57 -12q79 0 135.5 56.5t56.5 135.5zM606 108q-46 100 -46 206q0 90 36 191h-128q-15 -70 -15 -127q0 -46 12 -90q32 -116 141 -180zM832 -81l-19 122q-60 -35 -131 -35t-131 35l-19 -122l38 45l16 -1l44 -60l44 60h16l44 -60l44 60l16 1zM1017 966q-21 -40 -46 -40 q-30 0 -44 40q53 -4 90 0zM937 867h-44l-10 12l16 78l20 -4l-14 -66h32v-20zM887 966q-21 -40 -46 -40q-30 0 -44 40q53 -4 90 0zM952 826q-15 -36 -48 -36t-48 36l18 8q10 -24 30 -24t30 24zM772 338l-18 -8q-10 24 -30 24t-30 -24l-18 8q16 36 48 36q33 0 48 -36zM831 198 q-53 4 -90 0q21 40 46 40q30 0 44 -40zM745 285l-16 -78l-20 4l14 66h-32v20h44zM701 198q-53 4 -90 0q21 40 46 40q30 0 44 -40z" />
<glyph unicode="&#x1f0be;" d="M1578 -244q0 -148 -138 -148h-1252q-138 0 -138 148v1652q0 148 138 148h1252q138 0 138 -148v-1652zM1544 -244v1652q0 114 -104 114h-1252q-104 0 -104 -114v-1652q0 -114 104 -114h1252q104 0 104 114zM302 1252h-82v25h22l-64 81l66 71h-24v26h80v-26h-22l-62 -71 l64 -81h22v-25zM203 1429h-25v-152h23v-25h-80v25h25v152h-25v26h82v-26zM1499 4q0 -41 -40 -41q-43 0 -43 37q0 -37 -43 -37q-41 0 -41 41q0 23 84 161q83 -137 83 -161zM1296 -166h-964v1496h964v-1496zM296 1160q0 -23 -84 -161q-83 137 -83 161q0 41 40 41q43 0 43 -37 q0 37 43 37q41 0 41 -41zM1507 -291h-82v26h25v152h-23v25h80v-25h-25v-152h25v-26zM1450 -194l-66 -71h24v-26h-80v26h22l62 71l-64 81h-22v25h82v-25h-22zM1284 -154v1472h-940v-1472h940zM1180 1277l-29 -212l-18 -6q-68 79 -177 79t-177 -79l-18 6l-29 212l18 7l49 -60 l42 60h16l42 -60l49 60h16l49 -60l42 60h16l42 -60l49 60zM1194 592q0 -54 -54 -54t-54 54t54 54t54 -54zM1163 895q0 -66 -38 -119t-98 -75l-26 -60l-18 8l19 44q-9 -2 -15 -3l-13 -48l-16 4v-1l-20 -2l-3 46q-5 1 -16 2l9 -45l-20 -4l-10 54q-6 2 -21 8l22 -56l-19 -7 l-30 77q-74 45 -95 128h-228v-30h-20v30h-10v-99l-10 -10h-58l-10 10v101q-15 16 -15 37q0 54 54 54q21 0 37 -15h12v30h20v-30h224q11 76 69 127t136 51q85 0 146 -61t61 -146zM632 1224q0 -44 -62 -130q-63 -89 -67 -123q-4 34 -67 123q-62 86 -62 130q0 24 17.5 44 t41.5 20q62 0 68 -77h4q6 77 68 77q24 0 41.5 -20t17.5 -44zM1141 518q-90 -101 -243 -128l-4 20q143 25 232 121zM734 754q-143 -25 -232 -121l-15 13q90 101 243 128zM1254 -60q0 -24 -17.5 -44t-41.5 -20q-62 0 -68 77h-4q-6 -77 -68 -77q-24 0 -41.5 20t-17.5 44 q0 44 62.5 131.5t66.5 121.5q4 -34 66.5 -121.5t62.5 -131.5zM1224 279q0 -54 -54 -54q-21 0 -37 15h-12v-30h-20v30h-224q-11 -76 -69 -127t-136 -51q-85 0 -146 61t-61 146q0 66 38 119t98 75l26 60l18 -8l-19 -44q9 2 15 3l13 48l16 -4v1l20 2l3 -46q5 -1 16 -2l-9 45 l20 4l10 -54q6 -2 21 -8l-22 56l19 7l30 -77q74 -45 95 -128h228v30h20v-30h10v99l10 10h58l10 -10v-101q15 -16 15 -37zM542 572q0 -54 -54 -54t-54 54t54 54t54 -54zM896 -113l-18 -7l-49 60l-42 -60h-16l-42 60l-49 -60h-16l-49 60l-42 -60h-16l-42 60l-49 -60l-18 7 l29 212l18 6q68 -79 177 -79t177 79l18 -6zM1155 1244l-35 -43h-16l-41 59l-41 -59h-16l-50 61l-50 -61h-16l-41 59l-41 -59h-16l-35 43l21 -156q72 70 178 70t178 -70zM1143 895q0 77 -55 132t-132 55t-132 -55t-55 -132q0 -86 67 -143l-11 27l19 7l22 -54q15 -8 28 -13 l-12 62l20 4l13 -73q8 -2 18 -3l-5 73l20 2l5 -76h3q3 0 15 1l21 76l19 -5l-18 -68q12 2 20 5l30 69l18 -8l-22 -50q104 52 104 167zM1174 592q0 34 -34 34t-34 -34t34 -34t34 34zM966 688h-11l2 -33zM1189 330v77h-38v-77q8 3 16 3h5q9 0 17 -3zM751 866q-2 14 -2 38h-241 q4 -11 4 -19t-4 -19h243zM1204 279q0 34 -34 34t-34 -34t34 -34t34 34zM492 885q0 34 -34 34t-34 -34t34 -34t34 34zM1120 260q-4 11 -4 19t4 19h-243q2 -14 2 -38h241zM477 757v77q-8 -3 -16 -3h-5q-9 0 -17 3v-77h38zM673 476l-2 33l-9 -33h11zM522 572q0 34 -34 34 t-34 -34t34 -34t34 34zM859 269q0 86 -67 143l11 -27l-19 -7l-22 54q-15 8 -28 13l12 -62l-20 -4l-13 73q-8 2 -18 3l5 -73l-20 -2l-5 76h-3q-3 0 -15 -1l-21 -76l-19 5l18 68q-12 -2 -20 -5l-30 -69l-18 8l22 50q-104 -52 -104 -167q0 -77 55 -132t132 -55t132 55t55 132z M871 -80l-21 156q-72 -70 -178 -70t-178 70l-21 -156l35 43h16l41 -59l41 59h16l50 -61l50 61h16l41 -59l41 59h16zM1065 966q-21 -40 -46 -40q-30 0 -44 40q53 -4 90 0zM999 867h-61l-10 12l20 78l19 -5l-16 -65h48v-20zM935 966q-21 -40 -46 -40q-30 0 -44 40q53 -4 90 0z M783 198q-53 4 -90 0q21 40 46 40q30 0 44 -40zM700 285l-20 -78l-19 5l16 65h-48v20h61zM653 198q-53 4 -90 0q21 40 46 40q30 0 44 -40z" />
<glyph unicode="&#x1f0bf;" d="M1578 -244q0 -148 -138 -148h-1252q-138 0 -138 148v1652q0 148 138 148h1252q138 0 138 -148v-1652zM1544 -244v1652q0 114 -104 114h-1252q-104 0 -104 -114v-1652q0 -114 104 -114h1252q104 0 104 114zM394 1318q0 -43 -30.5 -73.5t-73.5 -30.5t-73.5 29.5t-30.5 72.5 t30.5 73.5t73.5 30.5t73.5 -29.5t30.5 -72.5zM1433 578q0 -34 -26 -59t-60 -25q-35 0 -59.5 25t-24.5 60q0 45 39 73q-4 32 -28 59q-28 31 -68 31q-58 0 -99 -65q-32 -52 -42 -119q41 -42 41 -118q0 -130 -95 -294q-81 -138 -194 -247q-113 109 -194 247q-95 164 -95 294 q0 76 41 118q-42 184 -142 184q-74 0 -95 -90q51 -29 51 -77q0 -33 -27 -59t-60 -26q-34 0 -59.5 26t-25.5 60q0 39 22 53q38 25 42 30q5 14 14 40q44 126 159 126q118 0 219 -152q1 1 1 4q0 53 -58 140.5t-107 97.5q-15 3 -36 3q-46 0 -72 -16q4 -12 4 -23q0 -33 -26 -60 t-59 -27q-34 0 -59.5 26t-25.5 60q0 35 26 59.5t61 24.5q29 0 44 -12q78 46 147 46q181 0 262 -266q14 57 14 174q0 39 -9 114q-12 92 -25 95q10 -2 -14 -2q-35 0 -62.5 26t-27.5 61q0 34 26 59.5t60 25.5q32 0 59 -26.5t27 -58.5q0 -2 -12 -41q87 -105 90 -367 q79 206 230 206q69 0 125 -32q9 3 30 18q14 10 35 10q33 0 59 -26.5t26 -59.5t-26 -58t-59 -25q-34 0 -59.5 24.5t-27.5 58.5q-14 12 -41 12q-90 0 -151 -76q-51 -64 -68 -162v-1l1 -2q115 148 218 148q121 0 169 -160q77 -21 77 -87zM1442 -152q0 -43 -30.5 -73.5 t-73.5 -30.5t-73.5 29.5t-30.5 72.5t30.5 73.5t73.5 30.5t73.5 -29.5t30.5 -72.5zM1380 906q0 12 -6 25v-50q6 12 6 25zM1354 857v100q-13 11 -30 14v-127q16 3 30 13zM1304 844v126q-5 -2 -30 -17v-97q10 -10 30 -12zM1254 896v48h-5q-3 0 -8.5 2.5l-16.5 7.5v-23 q20 -9 30 -35zM1204 937v25q-18 6 -30 9v-33h13q10 0 17 -1zM1154 936v38q-17 2 -29 2h-1v-47q15 5 30 7zM1104 921v54q-14 -2 -30 -7v-63q13 9 30 16zM1304 706v24q-15 26 -30 41v-34q17 -13 30 -31zM1254 749v38q-13 8 -30 13v-40q14 -3 30 -11zM1204 762v42q-9 1 -17 1 q-2 0 -13 -1v-46q13 4 30 4zM1404 547v63q-8 12 -30 23v-113q19 9 30 27zM1054 890v70q-14 -7 -30 -18v-83q15 19 30 31zM1354 514v129q-13 7 -30 46v-171q10 -4 23 -4h7zM754 1131v127q-11 5 -23 5h-7v-131q6 -1 10 -1q2 0 5 1h6q6 0 9 -1zM1154 750v51q-16 -4 -30 -10v-62 q14 13 30 21zM704 1138v119q-19 -9 -30 -28v-63q11 -18 30 -28zM1304 531v95q-21 -22 -21 -47q0 -28 21 -48zM1004 832v94q-14 -13 -30 -33v-120q13 32 30 59zM1104 707v73q-16 -10 -30 -21v-102q13 29 30 50zM804 497v626l-14 21q-5 7 -5 12q0 7 6 21t6 21q0 26 -23 47 v-131q12 -19 20 -94q9 -82 9 -134q0 -164 -29 -178v-201q17 -8 30 -10zM954 539v122q-7 11 -6 19q3 15 6 29v156q-15 -24 -30 -60v-271q17 5 30 5zM854 505v507q-11 40 -30 76v-592q11 1 30 9zM381 1318q0 37 -26.5 63.5t-64.5 26.5t-65 -27t-27 -65q0 -37 27 -63.5 t65 -26.5t64.5 27t26.5 65zM1004 531v156q-20 -22 -30 -29v-120q18 -2 30 -7zM904 527v243q-4 -3 -10 -3q-16 0 -20 29v-282q13 6 30 13zM1054 282v257q-9 16 -9 22q0 11 9 42v138q-15 -14 -30 -31v-192q25 -24 25 -85q0 -59 -25 -129v-91q17 35 30 69zM1086 440 q0 30 -12 60v-154q12 49 12 94zM604 860v88q-14 9 -30 15v-70q16 -16 30 -33zM654 783v123q-15 16 -30 28v-101q16 -23 30 -50zM554 911v59q-13 3 -30 5v-46q16 -7 30 -18zM504 936v40q-13 0 -30 -4v-34q10 0 30 -2zM704 536v300q-13 23 -30 46v-143q14 -37 14 -62 q0 -26 -14 -28v-110h2q15 0 28 -3zM754 517v199q-10 28 -30 79v-265q12 -4 30 -13zM454 938v29q-8 -2 -30 -11v-22q17 3 30 4zM404 929v19l-30 -13v-79q5 12 5 23q0 4 -1.5 12t-1.5 12q0 17 28 26zM554 672v93q-16 12 -30 20v-69q16 -18 30 -44zM504 735v59q-16 7 -30 9v-50 q16 -7 30 -18zM654 538v123q-6 6 -30 34v-167q14 8 30 10zM454 759v46h-6q-12 0 -24 -2v-41h3q14 0 27 -3zM354 828v104q-10 4 -30 9v-128q17 3 30 15zM1430 -152q0 37 -27 63.5t-65 26.5t-64.5 -27t-26.5 -65q0 -37 26.5 -63.5t64.5 -26.5t65 27t27 65zM1004 174v81 q-12 -27 -30 -59v-72q18 29 30 50zM304 813v128q-17 -3 -30 -13v-101q13 -11 30 -14zM404 760v38q-15 -5 -30 -16v-34q14 9 30 12zM254 854v48q-5 -12 -5 -24t5 -24zM1029 433q0 86 -71 86q-26 0 -71 -21.5t-70 -21.5t-70 21.5t-71 21.5q-71 0 -71 -86q0 -169 212 -429 q212 260 212 429zM604 225v97q-19 60 -19 111q0 53 19 78v207q-14 15 -30 30v-123q9 -27 14 -53v-17q-4 -6 -14 -20v-237q12 -34 30 -73zM354 732v33q-17 -18 -30 -42v-34q11 25 30 43zM954 94v68q-15 -24 -30 -47v-63q16 21 30 42zM554 375v114q-6 -23 -6 -49q0 -31 6 -65z M904 25v61q-15 -21 -30 -41v-56zM354 545v59q-5 7 -30 30v-117q19 9 30 28zM304 511v167l-2 -5q-10 -26 -28 -40v-119q10 -4 22 -4q2 0 8 1zM654 134v73q-17 31 -30 62v-84q10 -19 30 -51zM254 527v92q-23 -16 -23 -43q0 -28 23 -49zM854 -34v53q-10 -13 -30 -38v-47z M704 60v64l-30 48v-70q8 -12 30 -42zM754 -4v57q-10 13 -30 41v-61q14 -17 30 -37zM804 -60v49q-10 12 -30 37v-53zM372 1345l-51 -38l21 -60l-52 38l-52 -38l20 60l-51 38h64l19 59l19 -59h63zM1021 441q-39 -103 -98 -103q-66 0 -66 81q29 -5 59 -5q55 0 105 27z M1421 -181h-64l-19 -59l-19 59h-63l51 38l-21 60l52 -38l52 38l-20 -60zM777 419q0 -31 -18 -56t-48 -25q-59 0 -98 103q50 -27 105 -27q30 0 59 5zM942 255q-35 -133 -125 -133t-125 133q38 -52 125 -52t125 52zM323 1329h-26l-7 22l-8 -22h-25l20 -15l-8 -23l21 14l20 -14 l-8 23zM1371 -165l-20 15l8 23l-21 -14l-20 14l8 -23l-21 -15h26l7 -22l8 22h25z" />
<glyph unicode="&#x1f0c1;" d="M1578 -244q0 -148 -138 -148h-1252q-138 0 -138 148v1652q0 148 138 148h1252q138 0 138 -148v-1652zM1544 -244v1652q0 114 -104 114h-1252q-104 0 -104 -114v-1652q0 -114 104 -114h1252q104 0 104 114zM321 1252h-79v25h24l-16 46h-74l-16 -46h24v-25h-79v25h25 l54 155h-24v23h106v-23h-24l54 -155h25v-25zM1490 63l-74 -100l-75 100l75 100zM942 595l-128 -172l-128 172l128 171zM287 1101l-75 -100l-74 100l74 100zM1523 -113h-25l-54 -155h24v-23h-106v23h24l-54 155h-25v25h79v-25h-24l16 -46h74l16 46h-24v25h79v-25zM243 1347 l-28 85h-4l-28 -85h60zM1445 -183h-60l28 -85h4z" />
<glyph unicode="&#x1f0c2;" d="M1578 -244q0 -148 -138 -148h-1252q-138 0 -138 148v1652q0 148 138 148h1252q138 0 138 -148v-1652zM1544 -244v1652q0 114 -104 114h-1252q-104 0 -104 -114v-1652q0 -114 104 -114h1252q104 0 104 114zM942 1159l-128 -171l-128 171l128 171zM277 1324l-1 -72h-130 q0 20 8 40q12 30 62 67q18 13 24.5 22.5t6.5 19.5q0 33 -33 33q-39 0 -36 -56h-27v9q0 71 61 71q64 0 64 -55q0 -17 -12 -33q-6 -8 -50 -43q-35 -27 -38 -49h76l1 46h24zM1490 63l-74 -100l-75 100l75 100zM287 1101l-75 -100l-74 100l74 100zM1482 -88q0 -20 -8 -40 q-12 -30 -62 -67q-18 -13 -24.5 -22.5t-6.5 -19.5q0 -33 33 -33q39 0 36 56h27v-9q0 -71 -61 -71q-64 0 -64 55q0 17 12 33q6 8 50 43q35 27 38 49h-76l-1 -46h-24l1 72h130zM942 5l-128 -171l-128 171l128 171z" />
<glyph unicode="&#x1f0c3;" d="M1578 -244q0 -148 -138 -148h-1252q-138 0 -138 148v1652q0 148 138 148h1252q138 0 138 -148v-1652zM1544 -244v1652q0 114 -104 114h-1252q-104 0 -104 -114v-1652q0 -114 104 -114h1252q104 0 104 114zM942 1159l-128 -171l-128 171l128 171zM282 1310q0 -30 -21 -46 t-49 -16q-71 0 -71 72h28q1 -48 45 -48q39 0 39 37q0 15 -13 26t-47 10v25q51 0 51 31q0 33 -30 33q-34 0 -35 -40h-28q0 34 17.5 49t42.5 15q61 0 61 -54q0 -33 -28 -46q38 -11 38 -48zM1490 63l-74 -100l-75 100l75 100zM942 595l-128 -172l-128 172l128 171zM287 1101 l-75 -100l-74 100l74 100zM1487 -156h-28q-1 48 -45 48q-39 0 -39 -37q0 -15 13 -26t47 -10v-25q-51 0 -51 -31q0 -33 30 -33q34 0 35 40h28q0 -34 -17.5 -49t-42.5 -15q-61 0 -61 54q0 33 28 46q-38 11 -38 48q0 30 21 46t49 16q71 0 71 -72zM942 5l-128 -171l-128 171 l128 171z" />
<glyph unicode="&#x1f0c4;" d="M1578 -244q0 -148 -138 -148h-1252q-138 0 -138 148v1652q0 148 138 148h1252q138 0 138 -148v-1652zM1544 -244v1652q0 114 -104 114h-1252q-104 0 -104 -114v-1652q0 -114 104 -114h1252q104 0 104 114zM1268 1159l-128 -171l-128 171l128 171zM616 1159l-128 -171 l-128 171l128 171zM282 1306h-33v-30h19v-24h-67v24h21v30h-68l-13 23l85 127h23v-126h33v-24zM1490 63l-74 -100l-75 100l75 100zM287 1101l-75 -100l-74 100l74 100zM1487 -165l-85 -127h-23v126h-33v24h33v30h-19v24h67v-24h-21v-30h68zM1268 5l-128 -171l-128 171 l128 171zM616 5l-128 -171l-128 171l128 171zM222 1330v80l-53 -80h53zM1459 -166h-53v-80z" />
<glyph unicode="&#x1f0c5;" d="M1578 -244q0 -148 -138 -148h-1252q-138 0 -138 148v1652q0 148 138 148h1252q138 0 138 -148v-1652zM1544 -244v1652q0 114 -104 114h-1252q-104 0 -104 -114v-1652q0 -114 104 -114h1252q104 0 104 114zM1268 1159l-128 -171l-128 171l128 171zM616 1159l-128 -171 l-128 171l128 171zM281 1316q0 -68 -70 -68q-64 0 -68 68h26q5 -44 42 -44q41 0 41 44q0 43 -38 43q-25 0 -41 -24q-9 9 -20 14l7 106h109v-54h-25v27h-62l-5 -60q20 16 42 16q62 0 62 -68zM1490 63l-74 -100l-75 100l75 100zM942 595l-128 -172l-128 172l128 171zM287 1101 l-75 -100l-74 100l74 100zM1485 -152h-26q-5 44 -42 44q-41 0 -41 -44q0 -43 38 -43q25 0 41 24q9 -9 20 -14l-7 -106h-109v54h25v-27h62l5 60q-20 -16 -42 -16q-62 0 -62 68t70 68q64 0 68 -68zM1268 5l-128 -171l-128 171l128 171zM616 5l-128 -171l-128 171l128 171z" />
<glyph unicode="&#x1f0c6;" d="M1578 -244q0 -148 -138 -148h-1252q-138 0 -138 148v1652q0 148 138 148h1252q138 0 138 -148v-1652zM1544 -244v1652q0 114 -104 114h-1252q-104 0 -104 -114v-1652q0 -114 104 -114h1252q104 0 104 114zM1268 1159l-128 -171l-128 171l128 171zM1268 595l-128 -172 l-128 172l128 171zM616 1159l-128 -171l-128 171l128 171zM277 1318q0 -70 -61 -70q-32 0 -51 26t-19 78q0 106 71 106q57 0 59 -63h-26q-5 39 -35 39q-41 0 -42 -76q21 23 48 23q56 0 56 -63zM1490 63l-74 -100l-75 100l75 100zM287 1101l-75 -100l-74 100l74 100z M1482 -188q0 -106 -71 -106q-57 0 -59 63h26q5 -39 35 -39q41 0 42 76q-21 -23 -48 -23q-56 0 -56 63q0 70 61 70q32 0 51 -26t19 -78zM1268 5l-128 -171l-128 171l128 171zM616 595l-128 -172l-128 172l128 171zM616 5l-128 -171l-128 171l128 171zM252 1315q0 39 -35 39 q-22 0 -43 -26q7 -56 41 -56q37 0 37 43zM1454 -164q-7 56 -41 56q-37 0 -37 -43q0 -39 35 -39q22 0 43 26z" />
<glyph unicode="&#x1f0c7;" d="M1578 -244q0 -148 -138 -148h-1252q-138 0 -138 148v1652q0 148 138 148h1252q138 0 138 -148v-1652zM1544 -244v1652q0 114 -104 114h-1252q-104 0 -104 -114v-1652q0 -114 104 -114h1252q104 0 104 114zM1268 1159l-128 -171l-128 171l128 171zM1268 595l-128 -172 l-128 172l128 171zM942 848l-128 -171l-128 171l128 172zM616 1159l-128 -171l-128 171l128 171zM276 1433q-56 -67 -56 -157h23v-24h-80v24h28q5 85 52 152h-70v-27h-24v54h127v-22zM1490 63l-74 -100l-75 100l75 100zM287 1101l-75 -100l-74 100l74 100zM1479 -291h-127 v22q56 67 56 157h-23v24h80v-24h-28q-5 -85 -52 -152h70v27h24v-54zM1268 5l-128 -171l-128 171l128 171zM616 595l-128 -172l-128 172l128 171zM616 5l-128 -171l-128 171l128 171z" />
<glyph unicode="&#x1f0c8;" d="M1578 -244q0 -148 -138 -148h-1252q-138 0 -138 148v1652q0 148 138 148h1252q138 0 138 -148v-1652zM1544 -244v1652q0 114 -104 114h-1252q-104 0 -104 -114v-1652q0 -114 104 -114h1252q104 0 104 114zM1268 1159l-128 -171l-128 171l128 171zM1268 595l-128 -172 l-128 172l128 171zM942 848l-128 -171l-128 171l128 172zM616 1159l-128 -171l-128 171l128 171zM282 1307q0 -59 -68 -59q-73 0 -73 59q0 37 36 51q-29 17 -29 47q0 53 62 53q66 0 66 -53q0 -30 -29 -47q35 -14 35 -51zM1490 63l-74 -100l-75 100l75 100zM287 1101 l-75 -100l-74 100l74 100zM1487 -143q0 -37 -36 -51q29 -17 29 -47q0 -53 -62 -53q-66 0 -66 53q0 30 29 47q-35 14 -35 51q0 59 68 59q73 0 73 -59zM942 341l-128 -171l-128 171l128 171zM1268 5l-128 -171l-128 171l128 171zM616 595l-128 -172l-128 172l128 171zM616 5 l-128 -171l-128 171l128 171zM249 1401q0 33 -38 33q-37 0 -37 -33q0 -31 38 -31q37 0 37 31zM253 1309q0 36 -42 36q-41 0 -41 -36q0 -37 42 -37q41 0 41 37zM1458 -145q0 37 -42 37q-41 0 -41 -37q0 -36 42 -36q41 0 41 36zM1454 -237q0 31 -38 31q-37 0 -37 -31 q0 -33 38 -33q37 0 37 33z" />
<glyph unicode="&#x1f0c9;" d="M1578 -244q0 -148 -138 -148h-1252q-138 0 -138 148v1652q0 148 138 148h1252q138 0 138 -148v-1652zM1544 -244v1652q0 114 -104 114h-1252q-104 0 -104 -114v-1652q0 -114 104 -114h1252q104 0 104 114zM1268 1159l-128 -171l-128 171l128 171zM1268 779l-128 -172 l-128 172l128 171zM616 1159l-128 -171l-128 171l128 171zM277 1354q0 -106 -71 -106q-56 0 -58 63h25q5 -39 36 -39q40 0 41 76q-21 -23 -47 -23q-57 0 -57 64q0 69 61 69q32 0 51 -26t19 -78zM1268 385l-128 -171l-128 171l128 172zM1490 63l-74 -100l-75 100l75 100z M942 595l-128 -172l-128 172l128 171zM287 1101l-75 -100l-74 100l74 100zM616 779l-128 -172l-128 172l128 171zM1482 -225q0 -69 -61 -69q-32 0 -51 26t-19 78q0 106 71 106q56 0 58 -63h-25q-5 39 -36 39q-40 0 -41 -76q21 23 47 23q57 0 57 -64zM1268 5l-128 -171 l-128 171l128 171zM616 385l-128 -171l-128 171l128 172zM616 5l-128 -171l-128 171l128 171zM249 1378q-6 56 -40 56q-37 0 -37 -43q0 -39 34 -39q22 0 43 26zM1456 -227q0 39 -34 39q-22 0 -43 -26q6 -56 40 -56q37 0 37 43z" />
<glyph unicode="&#x1f0ca;" d="M1578 -244q0 -148 -138 -148h-1252q-138 0 -138 148v1652q0 148 138 148h1252q138 0 138 -148v-1652zM1544 -244v1652q0 114 -104 114h-1252q-104 0 -104 -114v-1652q0 -114 104 -114h1252q104 0 104 114zM1268 1159l-128 -171l-128 171l128 171zM1268 779l-128 -172 l-128 172l128 171zM942 975l-128 -171l-128 171l128 171zM616 1159l-128 -171l-128 171l128 171zM314 1353q0 -105 -61 -105q-62 0 -62 105t62 105q61 0 61 -105zM1268 385l-128 -171l-128 171l128 172zM191 1252h-83v24h28v154h-28v25h56v-179h27v-24zM1490 63l-74 -100 l-75 100l75 100zM287 1101l-75 -100l-74 100l74 100zM1520 -291h-56v179h-27v24h83v-24h-28v-154h28v-25zM616 779l-128 -172l-128 172l128 171zM1437 -189q0 -105 -62 -105q-61 0 -61 105t61 105q62 0 62 -105zM1268 5l-128 -171l-128 171l128 171zM942 214l-128 -171 l-128 171l128 171zM616 385l-128 -171l-128 171l128 172zM616 5l-128 -171l-128 171l128 171zM285 1353q0 81 -32 81q-33 0 -33 -81t33 -81q32 0 32 81zM1408 -189q0 81 -33 81q-32 0 -32 -81t32 -81q33 0 33 81z" />
<glyph unicode="&#x1f0cb;" d="M1578 -244q0 -148 -138 -148h-1252q-138 0 -138 148v1652q0 148 138 148h1252q138 0 138 -148v-1652zM1544 -244v1652q0 114 -104 114h-1252q-104 0 -104 -114v-1652q0 -114 104 -114h1252q104 0 104 114zM285 1429h-28v-110q0 -80 -71 -80q-46 0 -56 48l26 9 q10 -31 33 -31q37 0 37 53v111h-41v26h100v-26zM1490 63l-74 -100l-75 100l75 100zM1296 -166h-964v1496h964v-1496zM287 1101l-75 -100l-74 100l74 100zM1498 -123l-26 -9q-10 31 -33 31q-37 0 -37 -53v-111h41v-26h-100v26h28v110q0 80 71 80q46 0 56 -48zM1284 -154v1472 h-940v-1472h940zM1160 1251l-29 -187l-18 -5q-68 79 -177 79t-177 -79l-18 5l-29 187l10 12h428zM1267 654h-30v-2q15 -16 15 -37q0 -22 -15 -38v-91h-78v91q-15 16 -15 38q0 21 15 37v2h-30v20h30v271l39 72l39 -72v-271h30v-20zM1143 895q0 -69 -41.5 -123.5t-105.5 -74.5 l-12 -65l-20 4l11 56q-18 -3 -29 -4v-54h-20v54q-11 1 -29 4l11 -56l-20 -4l-12 65q-64 20 -105.5 74.5t-41.5 123.5q0 85 61 146t146 61t146 -61t61 -146zM632 1131q-77 -67 -129 -157q-52 90 -129 157q77 67 129 157q52 -90 129 -157zM1141 518q-90 -101 -243 -128l-4 20 q143 25 232 121zM734 754q-143 -25 -232 -121l-15 13q90 101 243 128zM1254 33q-77 -67 -129 -157q-52 90 -129 157q77 67 129 157q52 -90 129 -157zM899 269q0 -85 -61 -146t-146 -61t-146 61t-61 146q0 69 41.5 123.5t105.5 74.5l12 65l20 -4l-11 -56q18 3 29 4v54h20v-54 q11 -1 29 -4l-11 56l20 4l12 -65q64 -20 105.5 -74.5t41.5 -123.5zM499 490h-30v-271l-39 -72l-39 72v271h-30v20h30v2q-15 16 -15 37q0 22 15 38v91h78v-91q15 -16 15 -38q0 -21 -15 -37v-2h30v-20zM916 -87l-10 -12h-428l-10 12l29 187l18 5q68 -79 177 -79t177 79l18 -5z M1138 1243h-404l24 -155q72 70 178 70t178 -70zM1217 665v274l-19 36l-19 -36v-274q11 4 19 4t19 -4zM1123 895q0 77 -55 132t-132 55t-132 -55t-55 -132q0 -131 123 -176l-8 42l20 4l10 -52q18 -4 32 -5v55h20v-55q14 1 32 5l10 52l20 -4l-8 -42q123 45 123 176zM1232 615 q0 34 -34 34t-34 -34t34 -34t34 34zM1217 506v58q-8 -3 -19 -3t-19 3v-58h38zM449 600v58h-38v-58q8 3 19 3t19 -3zM464 549q0 34 -34 34t-34 -34t34 -34t34 34zM879 269q0 131 -123 176l8 -42l-20 -4l-10 52q-18 4 -32 5v-55h-20v55q-14 -1 -32 -5l-10 -52l-20 4l8 42 q-123 -45 -123 -176q0 -77 55 -132t132 -55t132 55t55 132zM449 225v274q-11 -4 -19 -4t-19 4v-274l19 -36zM894 -79l-24 155q-72 -70 -178 -70t-178 70l-24 -155h404zM1050 936q-53 4 -90 0q21 40 46 40q30 0 44 -40zM962 869l-10 -12h-61v20h48l-16 65l19 5zM910 936 q-53 4 -90 0q21 40 46 40q30 0 44 -40zM981 793h-90v20h90v-20zM737 351h-90v20h90v-20zM808 228q-21 -40 -46 -40q-30 0 -44 40q53 -4 90 0zM737 287h-48l16 -65l-19 -5l-20 78l10 12h61v-20zM668 228q-21 -40 -46 -40q-30 0 -44 40q53 -4 90 0z" />
<glyph unicode="&#x1f0cc;" d="M1578 -244q0 -148 -138 -148h-1252q-138 0 -138 148v1652q0 148 138 148h1252q138 0 138 -148v-1652zM1544 -244v1652q0 114 -104 114h-1252q-104 0 -104 -114v-1652q0 -114 104 -114h1252q104 0 104 114zM283 1267l-16 -7q-27 -12 -56 -12q-102 0 -102 105t102 105 q34 0 72 -18v-36h-6q-32 26 -68 26q-67 0 -67 -77t68 -77q37 0 67 26h6v-35zM1490 63l-74 -100l-75 100l75 100zM1296 -166h-964v1496h964v-1496zM287 1101l-75 -100l-74 100l74 100zM1519 -189q0 -105 -102 -105q-34 0 -72 18v36h6q32 -26 68 -26q67 0 67 77t-68 77 q-37 0 -67 -26h-6v35l16 7q27 12 56 12q102 0 102 -105zM1284 -154v1472h-940v-1472h940zM1168 1251l-67 -415l-13 -8q-79 22 -141 22t-141 -22l-13 8l-67 415l10 12h422zM1267 654h-30v-2q15 -16 15 -37q0 -22 -15 -38v-91h-78v91q-15 16 -15 38q0 21 15 37v2h-30v20h30 v271l39 72l39 -72v-271h30v-20zM632 1131q-77 -67 -129 -157q-52 90 -129 157q77 67 129 157q52 -90 129 -157zM873 635l-12 -16q-31 24 -64 88q-43 82 -54 97q-29 40 -29 44q0 10 3 20q-15 -12 -28 -25l-15 1q-13 15 -36 29q6 -17 7 -26l-2 -7q-65 -77 -76 -94 q-25 -42 -34 -118q12 -17 33 -20q8 8 94 66q41 28 58 110l20 -4q-17 -79 -48 -108q8 -34 25 -81l-19 -7q-16 46 -24 75q-31 -17 -95 -68l-8 -3q-56 4 -56 39q0 9 6 42q11 58 38 99q9 13 67 81q-3 14 -14 43l14 12q41 -22 59 -40q13 12 51 42l15 -12q-7 -14 -15 -44l25 -34 q11 -15 53 -96q33 -63 61 -85zM1115 537q0 -9 -6 -42q-11 -58 -38 -99q-9 -13 -67 -81q3 -14 14 -43l-14 -12q-41 22 -59 40q-13 -12 -51 -42l-15 12q7 14 15 44l-25 34q-11 15 -53 96q-33 63 -61 85l12 16q31 -24 64 -88q43 -82 54 -97q29 -40 29 -44q0 -10 -3 -20 q15 12 28 25l15 -1q13 -15 36 -29q-6 17 -7 26l2 7q65 77 76 94q25 42 34 118q-12 17 -33 20q-8 -8 -94 -66q-41 -28 -58 -110l-20 4q17 79 48 108q-8 34 -25 81l19 7q16 -46 24 -75q31 17 95 68l8 3q56 -4 56 -39zM1254 33q-77 -67 -129 -157q-52 90 -129 157 q77 67 129 157q52 -90 129 -157zM499 490h-30v-271l-39 -72l-39 72v271h-30v20h30v2q-15 16 -15 37q0 22 15 38v91h78v-91q15 -16 15 -38q0 -21 -15 -37v-2h30v-20zM902 -87l-10 -12h-422l-10 12l67 415l13 8q79 -22 141 -22t141 22l13 -8zM1217 665v274l-19 36l-19 -36 v-274q11 4 19 4t19 -4zM1146 1243h-398l63 -392q72 19 136 19q63 0 136 -19zM1232 615q0 34 -34 34t-34 -34t34 -34t34 34zM1217 506v58q-8 -3 -19 -3t-19 3v-58h38zM449 600v58h-38v-58q8 3 19 3t19 -3zM464 549q0 34 -34 34t-34 -34t34 -34t34 34zM880 -79l-63 392 q-72 -19 -136 -19q-63 0 -136 19l-63 -392h398zM449 225v274q-11 -4 -19 -4t-19 4v-274l19 -36zM1065 1178l-15 -209l-20 2l15 209zM1003 1179l-3 -209h-20l3 209h20zM949 970h-20l-3 209h20zM899 971l-20 -2l-15 209l20 2zM1019 928h-112v20h112v-20zM721 216h-112v20h112 v-20zM764 -14l-20 -2l-15 209l20 2zM702 -15h-20l-3 209h20zM648 194l-3 -209h-20l3 209h20zM598 193l-15 -209l-20 2l15 209z" />
<glyph unicode="&#x1f0cd;" d="M1578 -244q0 -148 -138 -148h-1252q-138 0 -138 148v1652q0 148 138 148h1252q138 0 138 -148v-1652zM1544 -244v1652q0 114 -104 114h-1252q-104 0 -104 -114v-1652q0 -114 104 -114h1252q104 0 104 114zM316 1353q0 -88 -82 -103q18 -11 34 -11q1 0 15 4l-13 -32 q-3 -1 -9 -2q-14 0 -38 11.5t-37 11.5q-12 0 -22 -9l-11 17q10 10 20 15q-66 25 -66 99q0 46 29 75t75 29t75.5 -29.5t29.5 -75.5zM1490 63l-74 -100l-75 100l75 100zM1296 -166h-964v1496h964v-1496zM287 1101l-75 -100l-74 100l74 100zM1521 -190q0 -46 -29 -75t-75 -29 t-75.5 29.5t-29.5 75.5q0 88 82 103q-18 11 -34 11q-1 0 -15 -4l13 32q3 1 9 2q14 0 38 -11.5t37 -11.5q12 0 22 9l11 -17q-10 -10 -20 -15q66 -25 66 -99zM283 1353q0 77 -72 77q-71 0 -71 -76q0 -78 71 -78q72 0 72 77zM1284 -154v1472h-940v-1472h940zM1488 -190 q0 78 -71 78q-72 0 -72 -77t72 -77q71 0 71 76zM1121 1277l-26 -172l-16 -7q-60 40 -133 40t-133 -40l-16 7l-26 172l18 8l52 -62l45 61h16l44 -60l44 60h16l45 -61l52 62zM1195 786q0 -62 -17 -139l-10 -8h-150l-9 13q5 13 15 46q-44 -20 -88 -20q-87 0 -149.5 62.5 t-62.5 149.5t62.5 149.5t149.5 62.5q78 0 154 -73q71 -67 93 -147q12 -43 12 -96zM632 1131q-77 -67 -129 -157q-52 90 -129 157q77 67 129 157q52 -90 129 -157zM1169 490h-59v-44q10 12 25 12q32 0 32 -32t-32 -32h-3v-6h3q32 0 32 -32t-32 -32t-32 32v3h-6v-3 q0 -32 -32 -32t-32 32t32 32h3v6h-3q-32 0 -32 32t32 32q15 0 25 -12v44h-59v20h33q-18 16 -18 40q0 54 54 54t54 -54q0 -24 -18 -40h33v-20zM1047 461q-74 -48 -149 -61l-4 20q71 12 142 58zM734 744q-71 -12 -142 -58l-11 17q74 48 149 61zM597 654h-33q18 -16 18 -40 q0 -54 -54 -54t-54 54q0 24 18 40h-33v20h59v44q-10 -12 -25 -12q-32 0 -32 32t32 32h3v6h-3q-32 0 -32 32t32 32t32 -32v-3h6v3q0 32 32 32t32 -32t-32 -32h-3v-6h3q32 0 32 -32t-32 -32q-15 0 -25 12v-44h59v-20zM1254 33q-77 -67 -129 -157q-52 90 -129 157 q77 67 129 157q52 -90 129 -157zM904 274q0 -87 -62.5 -149.5t-149.5 -62.5q-78 0 -154 73q-71 68 -93 147q-12 43 -12 96q0 62 17 139l10 8h150l9 -13q-5 -13 -15 -46q44 20 88 20q87 0 149.5 -62.5t62.5 -149.5zM857 -113l-18 -8l-52 62l-45 -61h-16l-44 60l-44 -60h-16 l-45 61l-52 -62l-18 8l26 172l16 7q60 -40 133 -40t133 40l16 -7zM1096 1245l-38 -45l-16 1l-44 60l-44 -60h-16l-44 60l-44 -60l-16 -1l-38 45l19 -122q60 35 131 35t131 -35zM1175 786q0 46 -12 90q-32 116 -141 180q46 -100 46 -206q0 -90 -36 -191h128q15 70 15 127z M1048 850q0 111 -55 220q-30 12 -57 12q-79 0 -135.5 -56.5t-56.5 -135.5t56.5 -135.5t135.5 -56.5q45 0 95 26q17 64 17 126zM1134 550q0 34 -34 34t-34 -34t34 -34t34 34zM1147 426q0 12 -12 12t-12 -12t12 -12t12 12zM1077 426q0 12 -12 12t-12 -12t12 -12t12 12z M1112 391q0 12 -12 12t-12 -12t12 -12t12 12zM1147 356q0 12 -12 12t-12 -12t12 -12t12 12zM1077 356q0 12 -12 12t-12 -12t12 -12t12 12zM575 808q0 12 -12 12t-12 -12t12 -12t12 12zM505 808q0 12 -12 12t-12 -12t12 -12t12 12zM540 773q0 12 -12 12t-12 -12t12 -12t12 12 zM575 738q0 12 -12 12t-12 -12t12 -12t12 12zM505 738q0 12 -12 12t-12 -12t12 -12t12 12zM562 614q0 34 -34 34t-34 -34t34 -34t34 34zM884 274q0 79 -56.5 135.5t-135.5 56.5q-45 0 -95 -26q-17 -64 -17 -126q0 -111 55 -220q30 -12 57 -12q79 0 135.5 56.5t56.5 135.5z M606 108q-46 100 -46 206q0 90 36 191h-128q-15 -70 -15 -127q0 -46 12 -90q32 -116 141 -180zM832 -81l-19 122q-60 -35 -131 -35t-131 35l-19 -122l38 45l16 -1l44 -60l44 60h16l44 -60l44 60l16 1zM1017 966q-21 -40 -46 -40q-30 0 -44 40q53 -4 90 0zM937 867h-44 l-10 12l16 78l20 -4l-14 -66h32v-20zM887 966q-21 -40 -46 -40q-30 0 -44 40q53 -4 90 0zM952 826q-15 -36 -48 -36t-48 36l18 8q10 -24 30 -24t30 24zM772 338l-18 -8q-10 24 -30 24t-30 -24l-18 8q16 36 48 36q33 0 48 -36zM831 198q-53 4 -90 0q21 40 46 40q30 0 44 -40z M745 285l-16 -78l-20 4l14 66h-32v20h44zM701 198q-53 4 -90 0q21 40 46 40q30 0 44 -40z" />
<glyph unicode="&#x1f0ce;" d="M1578 -244q0 -148 -138 -148h-1252q-138 0 -138 148v1652q0 148 138 148h1252q138 0 138 -148v-1652zM1544 -244v1652q0 114 -104 114h-1252q-104 0 -104 -114v-1652q0 -114 104 -114h1252q104 0 104 114zM302 1252h-82v25h22l-64 81l66 71h-24v26h80v-26h-22l-62 -71 l64 -81h22v-25zM203 1429h-25v-152h23v-25h-80v25h25v152h-25v26h82v-26zM1490 63l-74 -100l-75 100l75 100zM1296 -166h-964v1496h964v-1496zM287 1101l-75 -100l-74 100l74 100zM1507 -291h-82v26h25v152h-23v25h80v-25h-25v-152h25v-26zM1450 -194l-66 -71h24v-26h-80v26 h22l62 71l-64 81h-22v25h82v-25h-22zM1284 -154v1472h-940v-1472h940zM1109 1277l-29 -212l-18 -6q-68 79 -177 79t-177 -79l-18 6l-29 212l18 7l49 -60l42 60h16l42 -60l49 60h16l49 -60l42 60h16l42 -60l49 60zM1267 654h-30v-2q15 -16 15 -37q0 -22 -15 -38v-91h-78v91 q-15 16 -15 38q0 21 15 37v2h-30v20h30v229h-8v-86l-16 -8q-57 38 -57 104q0 75 58 105l15 -9v-86h8v22l39 72l39 -72v-271h30v-20zM1069 889q0 -88 -56 -153q-59 -68 -146 -68q-20 0 -36 4l-16 -41l-19 7l16 40q-1 1 -15 8l-10 -54l-20 4l12 61q-8 6 -16 14l-6 -78l-20 2 l7 98q-35 48 -42 115q-16 4 -46 19l-1 14q23 26 58 81q4 13 15 40q42 91 147 91q79 0 136.5 -62.5t57.5 -141.5zM632 1131q-77 -67 -129 -157q-52 90 -129 157q77 67 129 157q52 -90 129 -157zM1141 502q-83 -83 -217 -106l-4 20q126 22 207 100zM708 748 q-126 -22 -207 -100l-14 14q83 83 217 106zM1254 33q-77 -67 -129 -157q-52 90 -129 157q77 67 129 157q52 -90 129 -157zM973 283q-23 -26 -58 -81q-4 -13 -15 -40q-42 -91 -147 -91q-79 0 -136.5 62.5t-57.5 141.5q0 88 57.5 154.5t144.5 66.5q20 0 36 -4l16 41l19 -7 l-16 -40q1 -1 15 -8l10 54l20 -4l-12 -61q8 -6 16 -14l6 78l20 -2l-7 -98q35 -48 42 -115q16 -4 46 -19zM550 251q0 -75 -58 -105l-15 9v86h-8v-22l-39 -72l-39 72v271h-30v20h30v2q-15 16 -15 37q0 22 15 38v91h78v-91q15 -16 15 -38q0 -21 -15 -37v-2h30v-20h-30v-229h8 v86l16 8q57 -38 57 -104zM967 -113l-18 -7l-49 60l-42 -60h-16l-42 60l-49 -60h-16l-49 60l-42 -60h-16l-42 60l-49 -60l-18 7l29 212l18 6q68 -79 177 -79t177 79l18 -6zM1084 1244l-35 -43h-16l-41 59l-41 -59h-16l-50 61l-50 -61h-16l-41 59l-41 -59h-16l-35 43l21 -156 q72 70 178 70t178 -70zM1131 837v154q-33 -26 -33 -78q0 -46 33 -76zM1217 665v274l-19 36l-19 -36v-274q11 4 19 4t19 -4zM1232 615q0 34 -34 34t-34 -34t34 -34t34 34zM1049 889q0 71 -52 127.5t-122 56.5q-91 0 -129 -79q-5 -14 -15 -40q-12 -29 -53 -77l38 -13l5 -8 q0 -5 1 -14q7 -3 36 -18q22 -12 33 -12q28 0 37 37l19 -5q-12 -52 -56 -52q-7 0 -64 27q7 -29 19 -52l1 7l20 -2l-3 -33q6 -8 19 -19l10 55l20 -4l-12 -64q11 -7 19 -10l31 79l19 -7l-31 -78q14 -3 28 -3q78 0 132 62q50 59 50 139zM1217 506v58q-8 -3 -19 -3t-19 3v-58h38z M449 600v58h-38v-58q8 3 19 3t19 -3zM950 287l-38 13l-5 8q0 5 -1 14q-7 3 -36 18q-22 12 -33 12q-28 0 -37 -37l-19 5q12 52 56 52q7 0 64 -27q-7 29 -19 52l-1 -7l-20 2l3 33q-6 8 -19 19l-10 -55l-20 4l12 64q-11 7 -19 10l-31 -79l-19 7l31 78q-14 3 -28 3 q-78 0 -132 -62q-50 -59 -50 -139q0 -71 52 -127.5t122 -56.5q91 0 129 79q5 14 16 41.5t52 75.5zM464 549q0 34 -34 34t-34 -34t34 -34t34 34zM449 225v274q-11 -4 -19 -4t-19 4v-274l19 -36zM530 251q0 46 -33 76v-154q33 26 33 78zM942 -80l-21 156q-72 -70 -178 -70 t-178 70l-21 -156l35 43h16l41 -59l41 59h16l50 -61l50 61h16l41 -59l41 59h16zM845 956q-21 -40 -46 -40q-30 0 -44 40q53 -4 90 0zM873 208q-53 4 -90 0q21 40 46 40q30 0 44 -40z" />
<glyph unicode="&#x1f0cf;" d="M1578 -244q0 -148 -138 -148h-1252q-138 0 -138 148v1652q0 148 138 148h1252q138 0 138 -148v-1652zM1544 -244v1652q0 114 -104 114h-1252q-104 0 -104 -114v-1652q0 -114 104 -114h1252q104 0 104 114zM394 1318q0 -43 -30.5 -73.5t-73.5 -30.5t-73.5 29.5t-30.5 72.5 t30.5 73.5t73.5 30.5t73.5 -29.5t30.5 -72.5zM1433 578q0 -34 -26 -59t-60 -25q-35 0 -59.5 25t-24.5 60q0 45 39 73q-22 90 -96 90q-58 0 -99 -65q-32 -52 -42 -119q41 -42 41 -118q0 -130 -95 -294q-81 -138 -194 -247q-113 109 -194 247q-95 164 -95 294q0 76 41 118 q-42 184 -142 184q-74 0 -95 -90q51 -29 51 -77q0 -33 -27 -59t-60 -26q-34 0 -59.5 26t-25.5 60q0 39 22 53q38 25 42 30q5 14 14 40q44 126 159 126q118 0 219 -152q1 1 1 4q0 53 -58 140.5t-107 97.5q-15 3 -36 3q-46 0 -72 -16q4 -12 4 -23q0 -33 -26 -60t-59 -27 q-34 0 -59.5 26t-25.5 60q0 35 26 59.5t61 24.5q29 0 44 -12q78 46 147 46q181 0 262 -266q14 57 14 174q0 39 -9 114q-12 92 -25 95q10 -2 -14 -2q-35 0 -62.5 26t-27.5 61q0 34 26 59.5t60 25.5q32 0 59 -26.5t27 -58.5q0 -2 -12 -41q87 -105 90 -367q79 206 230 206 q69 0 125 -32q9 3 30 18q14 10 35 10q33 0 59 -26.5t26 -59.5t-26 -58t-59 -25q-34 0 -59.5 24.5t-27.5 58.5q-14 12 -41 12q-90 0 -151 -76q-51 -64 -68 -162v-1l1 -2q115 148 218 148q121 0 169 -160q77 -21 77 -87zM1442 -152q0 -43 -30.5 -73.5t-73.5 -30.5t-73.5 29.5 t-30.5 72.5t30.5 73.5t73.5 30.5t73.5 -29.5t30.5 -72.5zM372 1345h-63l-19 59l-19 -59h-64l51 -38l-20 -60l52 38l52 -38l-21 60zM1421 -181l-51 38l20 60l-52 -38l-52 38l21 -60l-51 -38h63l19 -59l19 59h64zM1049 433q0 106 -91 106q-31 0 -76.5 -21.5t-64.5 -21.5 t-64.5 21.5t-76.5 21.5q-91 0 -91 -106q0 -182 232 -460q232 278 232 460zM1021 441q-39 -103 -98 -103q-66 0 -66 81q29 -5 59 -5q55 0 105 27zM777 419q0 -31 -18 -56t-48 -25q-59 0 -98 103q50 -27 105 -27q30 0 59 5zM942 255q-35 -133 -125 -133t-125 133 q38 -52 125 -52t125 52z" />
<glyph unicode="&#x1f0d1;" d="M1578 -244q0 -148 -138 -148h-1252q-138 0 -138 148v1652q0 148 138 148h1252q138 0 138 -148v-1652zM1544 -244v1652q0 114 -104 114h-1252q-104 0 -104 -114v-1652q0 -114 104 -114h1252q104 0 104 114zM321 1252h-79v25h24l-16 46h-74l-16 -46h24v-25h-79v25h25 l54 155h-24v23h106v-23h-24l54 -155h25v-25zM1497 72q0 -39 -41 -39q-3 0 -23 10q21 -32 21 -37q0 -39 -38 -39t-38 39q0 7 20 37q-20 -10 -23 -10q-40 0 -40 39q0 38 40 38q29 0 36 -29v18q0 40 -19 70q8 -3 24 -3t24 3q-19 -30 -19 -70v-18q7 29 35 29q41 0 41 -38z M956 581q0 -26 -22.5 -46.5t-48.5 -20.5q-49 0 -62 52v-31q0 -69 34 -123q-13 5 -43 5t-43 -5q34 54 34 123v31q-13 -52 -62 -52q-26 0 -48.5 20.5t-22.5 46.5q0 68 71 68q9 0 41 -16q-12 14 -24 28.5t-12 34.5q0 70 66 70t66 -70q0 -20 -12 -34.5t-24 -28.5q32 16 41 16 q71 0 71 -68zM293 1092q0 -38 -40 -38q-29 0 -36 29v-18q0 -40 19 -70q-8 3 -24 3t-24 -3q19 30 19 70v18q-7 -29 -35 -29q-41 0 -41 38q0 39 41 39q3 0 23 -10q-21 32 -21 37q0 39 38 39t38 -39q0 -7 -20 -37q20 10 23 10q40 0 40 -39zM1523 -113h-25l-54 -155h24v-23h-106 v23h24l-54 155h-25v25h79v-25h-24l16 -46h74l16 46h-24v25h79v-25zM243 1347l-28 85h-4l-28 -85h60zM1445 -183h-60l28 -85h4z" />
<glyph unicode="&#x1f0d2;" d="M1578 -244q0 -148 -138 -148h-1252q-138 0 -138 148v1652q0 148 138 148h1252q138 0 138 -148v-1652zM1544 -244v1652q0 114 -104 114h-1252q-104 0 -104 -114v-1652q0 -114 104 -114h1252q104 0 104 114zM956 1145q0 -26 -22.5 -46.5t-48.5 -20.5q-49 0 -62 52v-31 q0 -69 34 -123q-13 5 -43 5t-43 -5q34 54 34 123v31q-13 -52 -62 -52q-26 0 -48.5 20.5t-22.5 46.5q0 69 71 69q7 0 41 -17q-12 14 -24 28.5t-12 34.5q0 70 66 70t66 -70q0 -20 -12 -34.5t-24 -28.5q34 17 41 17q71 0 71 -69zM277 1324l-1 -72h-130q0 20 8 40q12 30 62 67 q18 13 24.5 22.5t6.5 19.5q0 33 -33 33q-39 0 -36 -56h-27v9q0 71 61 71q64 0 64 -55q0 -17 -12 -33q-6 -8 -50 -43q-35 -27 -38 -49h76l1 46h24zM1497 72q0 -39 -41 -39q-3 0 -23 10q21 -32 21 -37q0 -39 -38 -39t-38 39q0 7 20 37q-20 -10 -23 -10q-40 0 -40 39 q0 38 40 38q29 0 36 -29v18q0 40 -19 70q8 -3 24 -3t24 3q-19 -30 -19 -70v-18q7 29 35 29q41 0 41 -38zM293 1092q0 -38 -40 -38q-29 0 -36 29v-18q0 -40 19 -70q-8 3 -24 3t-24 -3q19 30 19 70v18q-7 -29 -35 -29q-41 0 -41 38q0 39 41 39q3 0 23 -10q-21 32 -21 37 q0 39 38 39t38 -39q0 -7 -20 -37q20 10 23 10q40 0 40 -39zM1482 -88q0 -20 -8 -40q-12 -30 -62 -67q-18 -13 -24.5 -22.5t-6.5 -19.5q0 -33 33 -33q39 0 36 56h27v-9q0 -71 -61 -71q-64 0 -64 55q0 17 12 33q6 8 50 43q35 27 38 49h-76l-1 -46h-24l1 72h130zM956 19 q0 -69 -71 -69q-7 0 -41 17q12 -14 24 -29t12 -35q0 -69 -66 -69t-66 69q0 20 12 35t24 29q-34 -17 -41 -17q-71 0 -71 69q0 26 22.5 46.5t48.5 20.5q49 0 62 -52v31q0 69 -34 123q13 -5 43 -5t43 5q-34 -54 -34 -123v-31q13 52 62 52q26 0 48.5 -20.5t22.5 -46.5z" />
<glyph unicode="&#x1f0d3;" d="M1578 -244q0 -148 -138 -148h-1252q-138 0 -138 148v1652q0 148 138 148h1252q138 0 138 -148v-1652zM1544 -244v1652q0 114 -104 114h-1252q-104 0 -104 -114v-1652q0 -114 104 -114h1252q104 0 104 114zM956 1145q0 -26 -22.5 -46.5t-48.5 -20.5q-49 0 -62 52v-31 q0 -69 34 -123q-13 5 -43 5t-43 -5q34 54 34 123v31q-13 -52 -62 -52q-26 0 -48.5 20.5t-22.5 46.5q0 69 71 69q7 0 41 -17q-12 14 -24 28.5t-12 34.5q0 70 66 70t66 -70q0 -20 -12 -34.5t-24 -28.5q34 17 41 17q71 0 71 -69zM282 1310q0 -30 -21 -46t-49 -16q-71 0 -71 72 h28q1 -48 45 -48q39 0 39 37q0 15 -13 26t-47 10v25q51 0 51 31q0 33 -30 33q-34 0 -35 -40h-28q0 34 17.5 49t42.5 15q61 0 61 -54q0 -33 -28 -46q38 -11 38 -48zM1497 72q0 -39 -41 -39q-3 0 -23 10q21 -32 21 -37q0 -39 -38 -39t-38 39q0 7 20 37q-20 -10 -23 -10 q-40 0 -40 39q0 38 40 38q29 0 36 -29v18q0 40 -19 70q8 -3 24 -3t24 3q-19 -30 -19 -70v-18q7 29 35 29q41 0 41 -38zM956 581q0 -26 -22.5 -46.5t-48.5 -20.5q-49 0 -62 52v-31q0 -69 34 -123q-13 5 -43 5t-43 -5q34 54 34 123v31q-13 -52 -62 -52q-26 0 -48.5 20.5 t-22.5 46.5q0 68 71 68q9 0 41 -16q-12 14 -24 28.5t-12 34.5q0 70 66 70t66 -70q0 -20 -12 -34.5t-24 -28.5q32 16 41 16q71 0 71 -68zM293 1092q0 -38 -40 -38q-29 0 -36 29v-18q0 -40 19 -70q-8 3 -24 3t-24 -3q19 30 19 70v18q-7 -29 -35 -29q-41 0 -41 38q0 39 41 39 q3 0 23 -10q-21 32 -21 37q0 39 38 39t38 -39q0 -7 -20 -37q20 10 23 10q40 0 40 -39zM1487 -156h-28q-1 48 -45 48q-39 0 -39 -37q0 -15 13 -26t47 -10v-25q-51 0 -51 -31q0 -33 30 -33q34 0 35 40h28q0 -34 -17.5 -49t-42.5 -15q-61 0 -61 54q0 33 28 46q-38 11 -38 48 q0 30 21 46t49 16q71 0 71 -72zM956 19q0 -69 -71 -69q-7 0 -41 17q12 -14 24 -29t12 -35q0 -69 -66 -69t-66 69q0 20 12 35t24 29q-34 -17 -41 -17q-71 0 -71 69q0 26 22.5 46.5t48.5 20.5q49 0 62 -52v31q0 69 -34 123q13 -5 43 -5t43 5q-34 -54 -34 -123v-31q13 52 62 52 q26 0 48.5 -20.5t22.5 -46.5z" />
<glyph unicode="&#x1f0d4;" d="M1578 -244q0 -148 -138 -148h-1252q-138 0 -138 148v1652q0 148 138 148h1252q138 0 138 -148v-1652zM1544 -244v1652q0 114 -104 114h-1252q-104 0 -104 -114v-1652q0 -114 104 -114h1252q104 0 104 114zM1282 1145q0 -26 -22.5 -46.5t-48.5 -20.5q-49 0 -62 52v-31 q0 -67 35 -123q-13 5 -44 5q-30 0 -43 -5q35 56 35 123v31q-13 -52 -63 -52q-26 0 -48.5 20.5t-22.5 46.5q0 69 71 69q7 0 41 -17q-12 14 -24 28.5t-12 34.5q0 70 66 70t66 -70q0 -20 -11.5 -34.5t-23.5 -28.5q34 17 40 17q71 0 71 -69zM630 1145q0 -26 -22.5 -46.5 t-48.5 -20.5q-49 0 -62 52v-31q0 -69 34 -123q-13 5 -43 5t-43 -5q34 54 34 123v31q-13 -52 -62 -52q-26 0 -48.5 20.5t-22.5 46.5q0 69 71 69q6 0 40 -17q-12 14 -23.5 28.5t-11.5 34.5q0 70 66 70t66 -70q0 -20 -12 -34.5t-24 -28.5q34 17 41 17q71 0 71 -69zM282 1306 h-33v-30h19v-24h-67v24h21v30h-68l-13 23l85 127h23v-126h33v-24zM1497 72q0 -39 -41 -39q-3 0 -23 10q21 -32 21 -37q0 -39 -38 -39t-38 39q0 7 20 37q-20 -10 -23 -10q-40 0 -40 39q0 38 40 38q29 0 36 -29v18q0 40 -19 70q8 -3 24 -3t24 3q-19 -30 -19 -70v-18 q7 29 35 29q41 0 41 -38zM293 1092q0 -38 -40 -38q-29 0 -36 29v-18q0 -40 19 -70q-8 3 -24 3t-24 -3q19 30 19 70v18q-7 -29 -35 -29q-41 0 -41 38q0 39 41 39q3 0 23 -10q-21 32 -21 37q0 39 38 39t38 -39q0 -7 -20 -37q20 10 23 10q40 0 40 -39zM1487 -165l-85 -127h-23 v126h-33v24h33v30h-19v24h67v-24h-21v-30h68zM1282 19q0 -69 -71 -69q-6 0 -40 17q12 -14 23.5 -29t11.5 -35q0 -69 -66 -69t-66 69q0 20 12 35t24 29q-34 -17 -41 -17q-71 0 -71 69q0 26 22.5 46.5t48.5 20.5q50 0 63 -52v31q0 67 -35 123q13 -5 43 -5q31 0 44 5 q-35 -56 -35 -123v-31q13 52 62 52q26 0 48.5 -20.5t22.5 -46.5zM630 19q0 -69 -71 -69q-7 0 -41 17q12 -14 24 -29t12 -35q0 -69 -66 -69t-66 69q0 20 11.5 35t23.5 29q-34 -17 -40 -17q-71 0 -71 69q0 26 22.5 46.5t48.5 20.5q49 0 62 -52v31q0 69 -34 123q13 -5 43 -5 t43 5q-34 -54 -34 -123v-31q13 52 62 52q26 0 48.5 -20.5t22.5 -46.5zM222 1330v80l-53 -80h53zM1459 -166h-53v-80z" />
</font>
</defs>
</svg>
